<svg xmlns="http://www.w3.org/2000/svg" xmlns:xlink="http://www.w3.org/1999/xlink" width="100" zoomAndPan="magnify" viewBox="0 0 75 74.999997" height="100" preserveAspectRatio="xMidYMid meet" version="1.0"><defs><clipPath id="3cdbc31e70"><path d="M 26 10 L 49 10 L 49 62.488281 L 26 62.488281 Z M 26 10 " clip-rule="nonzero"/></clipPath></defs><path fill="#ffffff" d="M 19.015625 55.09375 C 17.90625 55.09375 17.164062 54.726562 16.425781 53.984375 L 1.636719 39.195312 C 0.160156 37.71875 0.160156 35.5 1.636719 34.019531 L 16.425781 19.234375 C 17.90625 17.753906 20.125 17.753906 21.601562 19.234375 C 23.082031 20.710938 23.082031 22.929688 21.601562 24.410156 L 9.402344 36.609375 L 21.601562 48.808594 C 23.082031 50.289062 23.082031 52.507812 21.601562 53.984375 C 20.863281 54.726562 20.125 55.09375 19.015625 55.09375 Z M 19.015625 55.09375 " fill-opacity="1" fill-rule="nonzero"/><path fill="#ffffff" d="M 55.984375 55.09375 C 54.875 55.09375 54.136719 54.726562 53.398438 53.984375 C 51.917969 52.507812 51.917969 50.289062 53.398438 48.808594 L 65.597656 36.609375 L 53.398438 24.410156 C 51.917969 22.929688 51.917969 20.710938 53.398438 19.234375 C 54.875 17.753906 57.09375 17.753906 58.574219 19.234375 L 73.363281 34.019531 C 74.839844 35.5 74.839844 37.71875 73.363281 39.195312 L 58.574219 53.984375 C 57.835938 54.726562 57.09375 55.09375 55.984375 55.09375 Z M 55.984375 55.09375 " fill-opacity="1" fill-rule="nonzero"/><g clip-path="url(#3cdbc31e70)"><path fill="#ffffff" d="M 30.105469 62.488281 C 29.734375 62.488281 29.367188 62.488281 28.996094 62.121094 C 27.148438 61.378906 26.039062 59.53125 26.777344 57.3125 L 41.566406 12.945312 C 42.304688 11.097656 44.15625 9.988281 46.375 10.730469 C 48.222656 11.46875 49.332031 13.316406 48.589844 15.535156 L 33.804688 59.902344 C 33.0625 61.378906 31.585938 62.488281 30.105469 62.488281 Z M 30.105469 62.488281 " fill-opacity="1" fill-rule="nonzero"/></g></svg>