<svg xmlns="http://www.w3.org/2000/svg" xmlns:xlink="http://www.w3.org/1999/xlink" width="100" zoomAndPan="magnify" viewBox="0 0 75 74.999997" height="100" preserveAspectRatio="xMidYMid meet" version="1.0"><defs><clipPath id="eaa920f851"><path d="M 4.347656 1.21875 L 70.347656 1.21875 L 70.347656 73.96875 L 4.347656 73.96875 Z M 4.347656 1.21875 " clip-rule="nonzero"/></clipPath></defs><g clip-path="url(#eaa920f851)"><path fill="#ffffff" d="M 34.902344 1.421875 C 32.753906 1.585938 31.242188 3.347656 30.171875 4.859375 C 29.121094 6.332031 27.410156 6.398438 24.226562 6.398438 C 21.960938 6.398438 18.851562 6.648438 18.003906 8.8125 C 17.609375 9.820312 17.640625 11.476562 19.976562 13.632812 L 20.265625 13.910156 C 22.21875 15.765625 24.359375 18.175781 25.230469 20.230469 C 27.804688 21.945312 32.054688 23.355469 35.847656 23.355469 C 42.128906 23.355469 46.445312 19.941406 46.445312 19.941406 C 47.136719 16.269531 50.050781 12.394531 50.417969 11.9375 L 50.5625 11.730469 C 51.632812 10.050781 53.097656 7.742188 52.109375 5.945312 C 51.75 5.289062 50.957031 4.515625 49.195312 4.515625 C 47.949219 4.515625 46.730469 4.808594 45.554688 5.089844 C 43.433594 5.601562 42.09375 5.867188 41.21875 4.996094 C 39.421875 3.128906 37.214844 1.257812 34.902344 1.421875 Z M 35.136719 4.554688 C 35.9375 4.511719 37.222656 5.375 38.976562 7.195312 C 41.160156 9.378906 44 8.691406 46.289062 8.144531 C 46.980469 7.976562 47.636719 7.855469 48.265625 7.769531 C 48.28125 8.265625 46.945312 9.296875 45.761719 10.210938 C 44.828125 10.933594 43.773438 11.746094 42.636719 12.78125 C 41.765625 13.574219 40.707031 14.042969 39.898438 13.980469 C 39.4375 13.949219 39.085938 13.765625 38.804688 13.433594 C 37.273438 11.5 35.933594 10.589844 34.457031 10.484375 C 32.34375 10.328125 30.722656 11.90625 29.121094 13.421875 C 28.527344 13.980469 27.785156 14.199219 26.914062 14.066406 C 25.164062 13.808594 23.273438 12.265625 21.605469 9.777344 C 22.109375 9.652344 22.925781 9.539062 24.226562 9.539062 C 27.550781 9.539062 30.6875 9.539062 32.734375 6.679688 C 33.710938 5.300781 34.496094 4.601562 35.136719 4.554688 Z M 57.464844 18.652344 C 52.976562 18.699219 49.332031 21.199219 46.839844 22.90625 C 46.199219 23.347656 45.621094 23.746094 45.132812 24.023438 C 41.183594 26.203125 37.511719 26.476562 35.09375 26.496094 C 30.359375 26.570312 27.105469 25.082031 27.078125 25.070312 L 26.59375 24.84375 L 26.074219 24.964844 C 14.957031 27.496094 4.441406 41.285156 4.441406 53.347656 C 4.441406 70.46875 15.546875 73.605469 37.417969 73.605469 C 59.285156 73.605469 70.390625 70.46875 70.390625 53.347656 C 70.390625 41.261719 60.792969 30.507812 50.625 25.820312 C 51.296875 25.738281 51.996094 25.691406 52.722656 25.710938 C 55.363281 25.78125 58.179688 26.574219 60.613281 29.148438 C 60.757812 29.296875 60.925781 29.417969 61.113281 29.5 C 61.304688 29.585938 61.503906 29.632812 61.710938 29.636719 C 61.917969 29.644531 62.121094 29.609375 62.316406 29.535156 C 62.511719 29.460938 62.683594 29.351562 62.835938 29.207031 C 62.984375 29.066406 63.105469 28.898438 63.1875 28.707031 C 63.273438 28.519531 63.320312 28.320312 63.324219 28.109375 C 63.332031 27.902344 63.296875 27.703125 63.222656 27.507812 C 63.148438 27.3125 63.039062 27.140625 62.894531 26.988281 C 60.089844 24.019531 56.683594 22.867188 53.632812 22.628906 C 56.210938 21.605469 59.191406 21.308594 62.566406 23.164062 C 63.328125 23.582031 64.285156 23.300781 64.703125 22.542969 C 65.121094 21.78125 64.839844 20.828125 64.078125 20.410156 C 61.71875 19.117188 59.503906 18.628906 57.464844 18.652344 Z M 26.425781 35.917969 L 45.269531 35.917969 C 46.132812 35.917969 46.839844 36.621094 46.839844 37.488281 C 46.839844 38.355469 46.132812 39.058594 45.269531 39.058594 L 38.945312 39.058594 C 39.640625 39.976562 40.160156 41.03125 40.398438 42.199219 L 45.269531 42.199219 C 46.132812 42.199219 46.839844 42.902344 46.839844 43.769531 C 46.839844 44.636719 46.132812 45.339844 45.269531 45.339844 L 40.398438 45.339844 C 39.667969 48.917969 36.5 51.621094 32.707031 51.621094 L 29.882812 51.621094 L 38.601562 61.578125 C 39.171875 62.230469 39.105469 63.222656 38.449219 63.792969 C 38.152344 64.054688 37.785156 64.183594 37.417969 64.183594 C 36.980469 64.183594 36.542969 64 36.234375 63.644531 L 25.242188 51.085938 C 24.835938 50.621094 24.742188 49.964844 24.996094 49.402344 C 25.25 48.839844 25.808594 48.480469 26.425781 48.480469 L 32.707031 48.480469 C 34.75 48.480469 36.476562 47.164062 37.128906 45.339844 L 26.425781 45.339844 C 25.558594 45.339844 24.855469 44.636719 24.855469 43.769531 C 24.855469 42.902344 25.558594 42.199219 26.425781 42.199219 L 37.128906 42.199219 C 36.476562 40.375 34.75 39.058594 32.707031 39.058594 L 26.425781 39.058594 C 25.558594 39.058594 24.855469 38.355469 24.855469 37.488281 C 24.855469 36.621094 25.558594 35.917969 26.425781 35.917969 Z M 26.425781 35.917969 " fill-opacity="1" fill-rule="nonzero"/></g></svg>