<svg xmlns="http://www.w3.org/2000/svg" xmlns:xlink="http://www.w3.org/1999/xlink" width="100" zoomAndPan="magnify" viewBox="0 0 75 74.999997" height="100" preserveAspectRatio="xMidYMid meet" version="1.0"><defs><clipPath id="2f23667c46"><path d="M 58 11 L 73.625 11 L 73.625 14 L 58 14 Z M 58 11 " clip-rule="nonzero"/></clipPath><clipPath id="1fdeb48a1a"><path d="M 1.625 7.5 L 62 7.5 L 62 67.5 L 1.625 67.5 Z M 1.625 7.5 " clip-rule="nonzero"/></clipPath></defs><g clip-path="url(#2f23667c46)"><path fill="#ffffff" d="M 72.195312 11.667969 L 60.03125 11.667969 C 59.402344 11.667969 58.890625 12.179688 58.890625 12.808594 C 58.890625 13.4375 59.402344 13.949219 60.03125 13.949219 L 72.195312 13.949219 C 72.824219 13.949219 73.335938 13.4375 73.335938 12.808594 C 73.335938 12.179688 72.824219 11.667969 72.195312 11.667969 Z M 72.195312 11.667969 " fill-opacity="1" fill-rule="nonzero"/></g><path fill="#ffffff" d="M 69.1875 22.636719 L 60.890625 22.636719 L 60.890625 24.914062 L 69.1875 24.914062 C 69.820312 24.914062 70.328125 24.40625 70.328125 23.777344 C 70.328125 23.148438 69.820312 22.636719 69.1875 22.636719 Z M 69.1875 22.636719 " fill-opacity="1" fill-rule="nonzero"/><path fill="#ffffff" d="M 66.355469 32.738281 L 63.46875 32.738281 L 63.46875 35.015625 L 66.355469 35.015625 C 66.984375 35.015625 67.496094 34.503906 67.496094 33.875 C 67.496094 33.246094 66.984375 32.738281 66.355469 32.738281 Z M 66.355469 32.738281 " fill-opacity="1" fill-rule="nonzero"/><path fill="#ffffff" d="M 47.933594 42.839844 L 54.078125 42.839844 C 54.421875 41.246094 54.601562 39.59375 54.601562 37.902344 C 54.601562 33.09375 53.148438 28.625 50.65625 24.914062 L 48.816406 24.914062 C 48.1875 24.914062 47.679688 24.40625 47.679688 23.777344 C 47.679688 23.148438 48.1875 22.636719 48.816406 22.636719 L 48.914062 22.636719 C 47.699219 21.230469 46.316406 19.972656 44.800781 18.894531 C 44.769531 19.027344 44.71875 19.152344 44.636719 19.273438 C 44.292969 19.800781 43.585938 19.945312 43.0625 19.601562 C 39.496094 17.253906 35.339844 16.015625 31.054688 16.015625 C 18.984375 16.015625 9.167969 25.832031 9.167969 37.902344 C 9.167969 49.96875 18.984375 59.785156 31.054688 59.785156 C 37.605469 59.785156 43.761719 56.886719 47.941406 51.824219 C 48.339844 51.339844 49.058594 51.269531 49.542969 51.671875 C 49.667969 51.773438 49.765625 51.898438 49.832031 52.035156 C 51.410156 49.972656 52.644531 47.636719 53.460938 45.117188 L 47.933594 45.117188 C 47.304688 45.117188 46.796875 44.605469 46.796875 43.976562 C 46.796875 43.351562 47.304688 42.839844 47.933594 42.839844 Z M 42.457031 24.453125 L 31.96875 38.582031 C 31.753906 38.871094 31.414062 39.042969 31.054688 39.042969 L 15.738281 39.042969 C 15.109375 39.042969 14.597656 38.53125 14.597656 37.902344 C 14.597656 37.273438 15.109375 36.761719 15.738281 36.761719 L 30.480469 36.761719 L 40.628906 23.097656 C 41 22.589844 41.714844 22.484375 42.21875 22.859375 C 42.726562 23.234375 42.828125 23.949219 42.457031 24.453125 Z M 48.023438 32.738281 L 52.257812 32.738281 C 52.886719 32.738281 53.394531 33.246094 53.394531 33.875 C 53.394531 34.503906 52.886719 35.015625 52.257812 35.015625 L 48.023438 35.015625 C 47.394531 35.015625 46.886719 34.503906 46.886719 33.875 C 46.886719 33.246094 47.394531 32.738281 48.023438 32.738281 Z M 48.023438 32.738281 " fill-opacity="1" fill-rule="nonzero"/><g clip-path="url(#1fdeb48a1a)"><path fill="#ffffff" d="M 61.539062 35.015625 L 58.089844 35.015625 C 57.457031 35.015625 56.949219 34.503906 56.949219 33.875 C 56.949219 33.246094 57.457031 32.738281 58.089844 32.738281 L 61.265625 32.738281 C 60.824219 29.988281 60.011719 27.359375 58.878906 24.914062 L 50.65625 24.914062 C 53.148438 28.625 54.601562 33.09375 54.601562 37.902344 C 54.601562 39.59375 54.421875 41.246094 54.078125 42.839844 L 58.085938 42.839844 C 58.71875 42.839844 59.226562 43.351562 59.226562 43.976562 C 59.226562 44.605469 58.71875 45.117188 58.085938 45.117188 L 53.460938 45.117188 C 52.644531 47.636719 51.410156 49.972656 49.832031 52.035156 C 50.03125 52.425781 49.996094 52.917969 49.695312 53.273438 C 45.085938 58.859375 38.289062 62.0625 31.054688 62.0625 C 17.730469 62.0625 6.890625 51.222656 6.890625 37.902344 C 6.890625 24.578125 17.730469 13.738281 31.054688 13.738281 C 35.789062 13.738281 40.371094 15.105469 44.3125 17.695312 C 44.71875 17.960938 44.894531 18.441406 44.800781 18.890625 L 44.800781 18.894531 C 46.316406 19.972656 47.699219 21.230469 48.914062 22.636719 L 57.703125 22.636719 C 55.785156 19.28125 53.234375 16.332031 50.21875 13.949219 C 45.109375 9.914062 38.65625 7.503906 31.640625 7.503906 C 15.066406 7.503906 1.636719 20.9375 1.636719 37.507812 C 1.636719 54.078125 15.066406 67.511719 31.640625 67.511719 C 42.039062 67.511719 51.199219 62.21875 56.582031 54.183594 C 59.777344 49.414062 61.640625 43.679688 61.640625 37.507812 C 61.644531 36.667969 61.605469 35.835938 61.539062 35.015625 Z M 61.539062 35.015625 " fill-opacity="1" fill-rule="nonzero"/></g></svg>