<svg xmlns="http://www.w3.org/2000/svg" xmlns:xlink="http://www.w3.org/1999/xlink" width="100" zoomAndPan="magnify" viewBox="0 0 75 74.999997" height="100" preserveAspectRatio="xMidYMid meet" version="1.0"><defs><clipPath id="1b3fccff47"><path d="M 1.070312 2 L 72 2 L 72 73 L 1.070312 73 Z M 1.070312 2 " clip-rule="nonzero"/></clipPath></defs><g clip-path="url(#1b3fccff47)"><path fill="#ffffff" d="M 71.808594 40.183594 L 68.945312 51.667969 C 68.789062 52.296875 68.179688 52.707031 67.539062 52.621094 L 60.148438 51.613281 C 59.664062 51.546875 59.199219 51.773438 58.933594 52.183594 C 57.097656 54.992188 54.75 57.476562 51.953125 59.449219 C 51.554688 59.730469 51.347656 60.207031 51.425781 60.6875 L 52.6875 68 C 52.796875 68.640625 52.40625 69.261719 51.785156 69.441406 L 40.40625 72.703125 C 39.78125 72.882812 39.125 72.566406 38.878906 71.964844 C 38.152344 70.183594 36.691406 66.617188 36.066406 65.082031 C 35.882812 64.628906 35.457031 64.347656 34.96875 64.320312 C 31.546875 64.128906 28.242188 63.265625 25.199219 61.855469 C 24.757812 61.652344 24.242188 61.710938 23.863281 62.019531 L 18.132812 66.789062 C 17.632812 67.207031 16.898438 67.179688 16.433594 66.726562 L 7.917969 58.503906 C 7.449219 58.054688 7.398438 57.324219 7.796875 56.8125 L 12.351562 50.929688 C 12.648438 50.542969 12.691406 50.027344 12.46875 49.59375 C 10.910156 46.515625 9.996094 43.339844 9.691406 39.902344 C 9.648438 39.414062 9.339844 39 8.878906 38.832031 L 1.902344 36.257812 C 1.292969 36.03125 0.953125 35.386719 1.109375 34.757812 L 3.972656 23.273438 C 4.128906 22.644531 4.734375 22.230469 5.378906 22.320312 L 12.765625 23.324219 C 13.253906 23.390625 13.71875 23.167969 13.984375 22.757812 C 15.816406 19.945312 18.167969 17.460938 20.960938 15.488281 C 21.363281 15.207031 21.570312 14.730469 21.488281 14.25 L 20.230469 6.933594 C 20.117188 6.296875 20.507812 5.675781 21.132812 5.496094 L 32.507812 2.234375 C 33.132812 2.054688 33.789062 2.375 34.039062 2.972656 L 36.847656 9.84375 C 37.035156 10.296875 37.464844 10.589844 37.949219 10.617188 C 38.546875 10.648438 39.140625 10.730469 39.726562 10.804688 C 39.066406 13.136719 38.832031 15.59375 39.105469 18.050781 C 39.144531 18.425781 39.023438 18.800781 38.757812 19.070312 L 35.476562 22.351562 C 26.449219 22.933594 19.558594 31.390625 21.675781 40.941406 C 22.914062 46.515625 27.414062 51.015625 32.988281 52.25 C 42.535156 54.371094 50.996094 47.480469 51.574219 38.449219 L 54.855469 35.167969 C 55.128906 34.898438 55.5 34.773438 55.878906 34.816406 C 58.351562 35.085938 60.765625 34.871094 63.113281 34.210938 C 63.144531 34.484375 63.203125 34.765625 63.222656 35.035156 C 63.265625 35.523438 63.574219 35.9375 64.035156 36.109375 L 71.011719 38.683594 C 71.625 38.90625 71.964844 39.554688 71.808594 40.183594 Z M 71.808594 40.183594 " fill-opacity="1" fill-rule="nonzero"/></g><path fill="#ffffff" d="M 71.109375 11.492188 C 72.757812 16.339844 71.652344 21.941406 67.777344 25.816406 C 64.070312 29.519531 58.789062 30.679688 54.089844 29.328125 C 53.832031 29.253906 53.554688 29.320312 53.363281 29.511719 L 35.34375 47.527344 C 30.644531 47 26.925781 43.28125 26.398438 38.582031 L 44.414062 20.5625 C 44.605469 20.375 44.671875 20.097656 44.597656 19.835938 C 43.246094 15.136719 44.40625 9.859375 48.109375 6.148438 C 51.984375 2.273438 57.585938 1.167969 62.433594 2.816406 C 62.957031 2.996094 63.089844 3.683594 62.699219 4.070312 L 52.914062 13.855469 C 52.714844 14.058594 52.644531 14.363281 52.734375 14.632812 L 54.261719 19.1875 C 54.335938 19.414062 54.511719 19.589844 54.738281 19.664062 L 59.292969 21.191406 C 59.566406 21.28125 59.867188 21.210938 60.070312 21.011719 L 69.855469 11.226562 C 70.242188 10.835938 70.929688 10.96875 71.109375 11.492188 Z M 71.109375 11.492188 " fill-opacity="1" fill-rule="nonzero"/></svg>