<svg xmlns="http://www.w3.org/2000/svg" xmlns:xlink="http://www.w3.org/1999/xlink" width="100" zoomAndPan="magnify" viewBox="0 0 75 74.999997" height="100" preserveAspectRatio="xMidYMid meet" version="1.0"><defs><clipPath id="ebc87aa81a"><path d="M 7.5 0.589844 L 69.75 0.589844 L 69.75 74 L 7.5 74 Z M 7.5 0.589844 " clip-rule="nonzero"/></clipPath></defs><g clip-path="url(#ebc87aa81a)"><path fill="#ffffff" d="M 53.054688 46.472656 C 52.972656 45.859375 53.40625 45.300781 54.015625 45.222656 C 54.625 45.140625 55.183594 45.574219 55.265625 46.183594 C 55.539062 48.296875 55.539062 50.335938 55.265625 52.449219 C 55.183594 53.058594 54.625 53.488281 54.015625 53.410156 C 53.40625 53.332031 52.972656 52.769531 53.054688 52.160156 C 53.296875 50.304688 53.296875 48.328125 53.054688 46.472656 Z M 18.601562 38.234375 C 16.296875 40.910156 14.816406 44.308594 14.539062 48.042969 C 14.535156 48.085938 14.550781 48.121094 14.578125 48.15625 C 14.605469 48.1875 14.644531 48.203125 14.6875 48.203125 L 16.074219 48.203125 C 16.6875 48.203125 17.1875 48.699219 17.1875 49.316406 C 17.1875 49.929688 16.6875 50.429688 16.074219 50.429688 L 14.6875 50.429688 C 14.644531 50.429688 14.605469 50.445312 14.578125 50.476562 C 14.550781 50.507812 14.535156 50.546875 14.539062 50.589844 C 14.816406 54.324219 16.296875 57.722656 18.601562 60.398438 C 18.628906 60.429688 18.664062 60.445312 18.707031 60.449219 C 18.75 60.449219 18.789062 60.433594 18.816406 60.40625 L 19.796875 59.425781 C 20.234375 58.988281 20.941406 58.988281 21.378906 59.425781 C 21.816406 59.863281 21.816406 60.570312 21.378906 61.007812 L 20.398438 61.984375 C 20.367188 62.015625 20.355469 62.054688 20.355469 62.097656 C 20.355469 62.140625 20.375 62.175781 20.40625 62.203125 C 23.082031 64.503906 26.480469 65.988281 30.214844 66.265625 C 30.257812 66.269531 30.296875 66.253906 30.328125 66.226562 C 30.359375 66.195312 30.375 66.160156 30.375 66.117188 L 30.375 64.730469 C 30.375 64.117188 30.871094 63.617188 31.488281 63.617188 C 32.101562 63.617188 32.601562 64.117188 32.601562 64.730469 L 32.601562 66.117188 C 32.601562 66.160156 32.617188 66.195312 32.648438 66.226562 C 32.679688 66.253906 32.71875 66.269531 32.761719 66.265625 C 36.496094 65.988281 39.894531 64.503906 42.570312 62.203125 C 42.601562 62.175781 42.617188 62.140625 42.621094 62.097656 C 42.621094 62.054688 42.605469 62.015625 42.578125 61.984375 L 41.597656 61.007812 C 41.160156 60.570312 41.160156 59.863281 41.597656 59.425781 C 42.035156 58.988281 42.742188 58.988281 43.179688 59.425781 L 44.15625 60.40625 C 44.1875 60.433594 44.226562 60.449219 44.269531 60.449219 C 44.3125 60.445312 44.347656 60.429688 44.375 60.398438 C 46.675781 57.722656 48.160156 54.328125 48.4375 50.59375 C 48.441406 50.550781 48.425781 50.515625 48.398438 50.480469 C 48.367188 50.449219 48.332031 50.433594 48.289062 50.433594 L 46.902344 50.433594 C 46.285156 50.433594 45.785156 49.933594 45.785156 49.316406 C 45.785156 48.699219 46.285156 48.199219 46.902344 48.199219 L 48.289062 48.199219 C 48.332031 48.199219 48.367188 48.183594 48.398438 48.148438 C 48.425781 48.117188 48.441406 48.082031 48.4375 48.039062 C 48.160156 44.304688 46.675781 40.910156 44.375 38.234375 C 44.347656 38.203125 44.3125 38.1875 44.269531 38.183594 C 44.226562 38.183594 44.1875 38.195312 44.15625 38.226562 L 43.179688 39.207031 C 42.742188 39.644531 42.035156 39.644531 41.597656 39.207031 C 41.160156 38.769531 41.160156 38.0625 41.597656 37.625 L 42.578125 36.644531 C 42.605469 36.617188 42.621094 36.578125 42.621094 36.535156 C 42.617188 36.492188 42.601562 36.457031 42.570312 36.429688 C 39.894531 34.128906 36.5 32.644531 32.765625 32.367188 C 32.722656 32.363281 32.683594 32.378906 32.652344 32.40625 C 32.621094 32.4375 32.605469 32.472656 32.605469 32.515625 L 32.605469 33.902344 C 32.605469 34.519531 32.105469 35.019531 31.488281 35.019531 C 30.871094 35.019531 30.371094 34.519531 30.371094 33.902344 L 30.371094 32.515625 C 30.371094 32.472656 30.355469 32.4375 30.320312 32.40625 C 30.289062 32.378906 30.253906 32.363281 30.210938 32.367188 C 26.476562 32.644531 23.082031 34.128906 20.40625 36.429688 C 20.375 36.457031 20.359375 36.492188 20.355469 36.535156 C 20.355469 36.578125 20.367188 36.617188 20.398438 36.644531 L 21.378906 37.625 C 21.816406 38.0625 21.816406 38.769531 21.378906 39.207031 C 20.941406 39.644531 20.234375 39.644531 19.796875 39.207031 L 18.816406 38.226562 C 18.789062 38.195312 18.75 38.183594 18.707031 38.183594 C 18.664062 38.183594 18.628906 38.203125 18.601562 38.234375 Z M 30.371094 38.851562 C 30.371094 38.230469 30.871094 37.730469 31.488281 37.730469 C 32.105469 37.730469 32.605469 38.230469 32.605469 38.851562 L 32.605469 48.792969 C 32.605469 48.832031 32.621094 48.867188 32.648438 48.898438 L 38.769531 55.015625 C 39.207031 55.453125 39.207031 56.160156 38.769531 56.597656 C 38.332031 57.035156 37.625 57.035156 37.1875 56.597656 L 30.703125 50.113281 C 30.496094 49.910156 30.371094 49.628906 30.371094 49.316406 Z M 52.90625 0.613281 L 55.050781 0.613281 C 56.070312 0.613281 56.90625 1.265625 56.90625 2.066406 L 56.90625 21.910156 C 56.90625 21.992188 56.839844 22.058594 56.757812 22.058594 L 51.199219 22.058594 C 51.117188 22.058594 51.050781 21.992188 51.050781 21.910156 L 51.050781 2.066406 C 51.050781 1.265625 51.882812 0.613281 52.90625 0.613281 Z M 40.570312 8.484375 L 42.710938 8.484375 C 43.734375 8.484375 44.566406 9.136719 44.566406 9.9375 L 44.566406 21.910156 C 44.566406 21.992188 44.5 22.058594 44.417969 22.058594 L 38.863281 22.058594 C 38.78125 22.058594 38.714844 21.992188 38.714844 21.910156 L 38.714844 9.9375 C 38.714844 9.136719 39.546875 8.484375 40.570312 8.484375 Z M 28.230469 6.121094 L 30.375 6.121094 C 31.398438 6.121094 32.230469 6.773438 32.230469 7.574219 L 32.230469 21.910156 C 32.230469 21.953125 32.214844 21.988281 32.1875 22.015625 C 32.15625 22.046875 32.121094 22.058594 32.082031 22.058594 C 30.125 22.058594 28.503906 22.015625 26.542969 22.253906 C 26.5 22.261719 26.460938 22.25 26.425781 22.21875 C 26.394531 22.191406 26.375 22.152344 26.375 22.105469 L 26.375 7.574219 C 26.375 6.773438 27.210938 6.121094 28.230469 6.121094 Z M 15.894531 13.820312 L 18.039062 13.820312 C 19.058594 13.820312 19.894531 14.472656 19.894531 15.273438 L 19.894531 23.886719 C 19.894531 23.949219 19.859375 24 19.800781 24.023438 C 17.828125 24.835938 15.976562 25.882812 14.273438 27.128906 C 14.230469 27.160156 14.171875 27.167969 14.121094 27.140625 C 14.070312 27.113281 14.039062 27.066406 14.039062 27.007812 L 14.039062 15.273438 C 14.039062 14.472656 14.871094 13.820312 15.894531 13.820312 Z M 61.988281 22.496094 L 65.007812 25.070312 C 65.054688 25.113281 65.074219 25.175781 65.050781 25.234375 C 65.027344 25.292969 64.976562 25.332031 64.910156 25.332031 L 31.488281 25.332031 C 18.242188 25.332031 7.503906 36.070312 7.503906 49.316406 C 7.503906 63.792969 20.230469 74.96875 34.621094 73.09375 C 35.230469 73.011719 35.660156 72.453125 35.582031 71.84375 C 35.5 71.234375 34.941406 70.800781 34.332031 70.882812 C 21.34375 72.578125 9.742188 62.496094 9.742188 49.316406 C 9.742188 37.304688 19.476562 27.570312 31.488281 27.570312 L 64.910156 27.570312 C 64.976562 27.570312 65.027344 27.605469 65.050781 27.667969 C 65.074219 27.726562 65.054688 27.789062 65.007812 27.832031 L 61.988281 30.40625 C 61.519531 30.804688 61.460938 31.503906 61.859375 31.972656 C 62.257812 32.441406 62.960938 32.496094 63.429688 32.101562 L 68.976562 27.375 C 68.980469 27.371094 68.980469 27.371094 68.984375 27.371094 C 69.628906 26.871094 69.628906 26.03125 68.980469 25.53125 C 68.980469 25.53125 68.980469 25.53125 68.976562 25.527344 L 63.429688 20.800781 C 62.960938 20.40625 62.257812 20.460938 61.859375 20.929688 C 61.460938 21.398438 61.519531 22.097656 61.988281 22.496094 Z M 51.589844 57.636719 C 51.824219 57.066406 52.476562 56.796875 53.046875 57.03125 C 53.617188 57.269531 53.886719 57.921875 53.648438 58.492188 C 52.847656 60.425781 51.785156 62.261719 50.507812 63.921875 C 50.128906 64.40625 49.429688 64.496094 48.941406 64.121094 C 48.457031 63.746094 48.367188 63.042969 48.742188 62.558594 C 49.894531 61.0625 50.859375 59.390625 51.589844 57.636719 Z M 44.730469 66.570312 C 45.21875 66.195312 45.917969 66.285156 46.292969 66.773438 C 46.671875 67.257812 46.578125 67.960938 46.09375 68.335938 C 44.433594 69.613281 42.597656 70.675781 40.664062 71.476562 C 40.097656 71.714844 39.441406 71.445312 39.207031 70.875 C 38.96875 70.304688 39.238281 69.652344 39.808594 69.417969 C 41.574219 68.683594 43.226562 67.726562 44.730469 66.570312 Z M 44.730469 66.570312 " fill-opacity="1" fill-rule="evenodd"/></g></svg>