<svg xmlns="http://www.w3.org/2000/svg" xmlns:xlink="http://www.w3.org/1999/xlink" width="100" zoomAndPan="magnify" viewBox="0 0 75 74.999997" height="100" preserveAspectRatio="xMidYMid meet" version="1.0"><defs><clipPath id="03b5d11adf"><path d="M 8.15625 47 L 66.65625 47 L 66.65625 73.285156 L 8.15625 73.285156 Z M 8.15625 47 " clip-rule="nonzero"/></clipPath></defs><path fill="#ffffff" d="M 58.769531 22.308594 C 58.605469 21.71875 58.207031 21.234375 57.644531 20.9375 C 57.765625 19.609375 57.582031 17.976562 57.273438 16.636719 C 57.007812 15.535156 56.59375 14.300781 55.960938 13.015625 C 55.289062 11.746094 54.464844 10.394531 53.304688 9.148438 C 52.207031 7.859375 50.789062 6.6875 49.1875 5.652344 C 35.230469 -3.203125 15.957031 7.273438 17.453125 20.941406 C 16.894531 21.238281 16.496094 21.71875 16.332031 22.304688 C 13.03125 22.363281 10.375 24.820312 10.375 27.851562 C 10.375 30.886719 13.03125 33.34375 16.332031 33.402344 C 16.597656 34.359375 17.5 35.085938 18.628906 35.085938 C 19.964844 35.085938 21.042969 34.097656 21.042969 32.875 L 21.042969 22.835938 C 21.042969 22.140625 20.675781 21.542969 20.128906 21.140625 C 20.734375 17.6875 22.53125 14.035156 25.046875 11.769531 C 28.742188 8.164062 35.160156 6.082031 42.210938 7.652344 C 44.925781 8.460938 47.59375 9.820312 49.820312 11.996094 C 52.296875 14.222656 54.308594 17.558594 54.964844 21.140625 C 53.539062 22.199219 54.050781 23.113281 54.050781 32.875 C 54.050781 33.636719 54.503906 34.277344 55.144531 34.675781 L 55.144531 35.527344 C 55.144531 36.0625 54.992188 36.59375 54.699219 37.046875 C 51.542969 41.964844 51.335938 42.464844 46.570312 43.992188 C 45.070312 44.46875 43.375 44.675781 41.664062 45.09375 C 40.089844 43.535156 37.308594 44.5625 37.308594 46.648438 C 37.308594 49.28125 41.417969 49.882812 42.214844 47.25 C 43.371094 46.96875 44.558594 46.804688 45.675781 46.460938 C 51.824219 44.59375 53.835938 43.480469 57.089844 37.269531 C 57.398438 36.679688 57.5625 36.03125 57.5625 35.367188 L 57.5625 34.816406 C 58.167969 34.53125 58.597656 34.023438 58.769531 33.398438 C 62.070312 33.339844 64.71875 30.886719 64.71875 27.851562 C 64.71875 24.824219 62.070312 22.371094 58.769531 22.308594 " fill-opacity="1" fill-rule="nonzero"/><g clip-path="url(#03b5d11adf)"><path fill="#ffffff" d="M 37.554688 58.1875 C 39.527344 55.417969 41.246094 53.035156 42.933594 50.632812 C 44.90625 47.8125 46.894531 46.902344 50.011719 47.953125 C 53.976562 49.292969 57.898438 50.789062 61.734375 52.457031 C 65.027344 53.890625 66.875 56.453125 66.671875 60.253906 C 66.566406 62.125 66.671875 64.003906 66.644531 65.875 C 66.578125 71.039062 64.226562 73.441406 59.113281 73.46875 C 52.507812 73.507812 45.90625 73.484375 39.304688 73.484375 C 31.628906 73.484375 23.953125 73.5 16.28125 73.472656 C 10.792969 73.445312 8.476562 71.101562 8.449219 65.644531 C 8.4375 63.859375 8.539062 62.070312 8.425781 60.292969 C 8.183594 56.335938 10.21875 53.796875 13.578125 52.34375 C 17.417969 50.683594 21.359375 49.242188 25.328125 47.929688 C 28.714844 46.804688 29.761719 47.304688 31.859375 50.242188 C 33.664062 52.773438 35.480469 55.296875 37.554688 58.1875 " fill-opacity="1" fill-rule="nonzero"/></g><path fill="#ffffff" d="M 51.542969 25.234375 C 51.179688 29.894531 49.710938 35.84375 44.824219 40.429688 C 40.683594 44.3125 34.367188 44.410156 30.292969 40.433594 C 24.648438 34.917969 22.867188 27.90625 23.742188 20.335938 C 24.195312 16.378906 26.609375 13.261719 30.667969 11.933594 C 36.695312 9.960938 42.535156 9.765625 47.84375 13.980469 C 50.941406 16.441406 51.652344 19.820312 51.542969 25.234375 " fill-opacity="1" fill-rule="nonzero"/></svg>