<svg xmlns="http://www.w3.org/2000/svg" xmlns:xlink="http://www.w3.org/1999/xlink" width="160" zoomAndPan="magnify" viewBox="0 0 120 37.5" height="50" preserveAspectRatio="xMidYMid meet" version="1.0"><defs><g/><clipPath id="edb08e894e"><path d="M 0.789062 0 L 119.210938 0 L 119.210938 37.007812 L 0.789062 37.007812 Z M 0.789062 0 " clip-rule="nonzero"/></clipPath><clipPath id="ae14442480"><path d="M 1.027344 14.015625 L 19.476562 14.015625 L 19.476562 26 L 1.027344 26 Z M 1.027344 14.015625 " clip-rule="nonzero"/></clipPath><clipPath id="938603d261"><path d="M 5 26 L 11 26 L 11 31.664062 L 5 31.664062 Z M 5 26 " clip-rule="nonzero"/></clipPath><clipPath id="b29baff804"><path d="M 12 26 L 17 26 L 17 31.664062 L 12 31.664062 Z M 12 26 " clip-rule="nonzero"/></clipPath><clipPath id="2cc6bfa8f5"><path d="M 2.097656 1.101562 L 18.941406 1.101562 L 18.941406 14.734375 L 2.097656 14.734375 Z M 2.097656 1.101562 " clip-rule="nonzero"/></clipPath><clipPath id="830d41280f"><rect x="0" width="20" y="0" height="32"/></clipPath></defs><g clip-path="url(#edb08e894e)"><path fill="#ffffff" d="M 0.789062 0 L 119.210938 0 L 119.210938 37.007812 L 0.789062 37.007812 Z M 0.789062 0 " fill-opacity="1" fill-rule="nonzero"/><path fill="#000000" d="M 0.789062 0 L 119.210938 0 L 119.210938 37.007812 L 0.789062 37.007812 Z M 0.789062 0 " fill-opacity="1" fill-rule="nonzero"/></g><g fill="#ffffff" fill-opacity="1"><g transform="translate(35.253511, 14.111567)"><g><path d="M 1.15625 0 L 1.15625 -10.46875 L 5.328125 -10.46875 C 6.359375 -10.46875 7.164062 -10.210938 7.75 -9.703125 C 8.34375 -9.203125 8.640625 -8.515625 8.640625 -7.640625 C 8.640625 -6.460938 8.140625 -5.660156 7.140625 -5.234375 C 8.242188 -4.867188 8.796875 -4.066406 8.796875 -2.828125 C 8.796875 -1.929688 8.5 -1.234375 7.90625 -0.734375 C 7.3125 -0.242188 6.472656 0 5.390625 0 Z M 5.171875 -8.84375 L 2.984375 -8.84375 L 2.984375 -6 L 5.203125 -6 C 5.710938 -6 6.097656 -6.125 6.359375 -6.375 C 6.628906 -6.625 6.765625 -6.984375 6.765625 -7.453125 C 6.765625 -7.898438 6.625 -8.242188 6.34375 -8.484375 C 6.070312 -8.722656 5.679688 -8.84375 5.171875 -8.84375 Z M 5.328125 -4.453125 L 2.984375 -4.453125 L 2.984375 -1.625 L 5.328125 -1.625 C 5.835938 -1.625 6.226562 -1.742188 6.5 -1.984375 C 6.78125 -2.234375 6.921875 -2.59375 6.921875 -3.0625 C 6.921875 -3.507812 6.78125 -3.851562 6.5 -4.09375 C 6.21875 -4.332031 5.828125 -4.453125 5.328125 -4.453125 Z M 5.328125 -4.453125 "/></g></g></g><g fill="#ffffff" fill-opacity="1"><g transform="translate(44.566299, 14.111567)"><g><path d="M 4.0625 0.1875 C 3.363281 0.1875 2.742188 0.03125 2.203125 -0.28125 C 1.671875 -0.601562 1.25 -1.046875 0.9375 -1.609375 C 0.632812 -2.171875 0.484375 -2.8125 0.484375 -3.53125 C 0.484375 -4.28125 0.632812 -4.9375 0.9375 -5.5 C 1.238281 -6.0625 1.65625 -6.5 2.1875 -6.8125 C 2.71875 -7.125 3.320312 -7.28125 4 -7.28125 C 4.707031 -7.28125 5.320312 -7.128906 5.84375 -6.828125 C 6.363281 -6.535156 6.765625 -6.117188 7.046875 -5.578125 C 7.328125 -5.035156 7.46875 -4.394531 7.46875 -3.65625 L 7.46875 -3.140625 L 2.140625 -3.125 C 2.273438 -1.875 2.925781 -1.25 4.09375 -1.25 C 5.070312 -1.25 5.664062 -1.597656 5.875 -2.296875 L 7.5 -2.296875 C 7.34375 -1.515625 6.960938 -0.90625 6.359375 -0.46875 C 5.753906 -0.03125 4.988281 0.1875 4.0625 0.1875 Z M 4.015625 -5.859375 C 2.972656 -5.859375 2.363281 -5.316406 2.1875 -4.234375 L 5.734375 -4.234375 C 5.734375 -4.722656 5.578125 -5.113281 5.265625 -5.40625 C 4.960938 -5.707031 4.546875 -5.859375 4.015625 -5.859375 Z M 4.015625 -5.859375 "/></g></g></g><g fill="#ffffff" fill-opacity="1"><g transform="translate(52.291162, 14.111567)"><g><path d="M 0.28125 3.28125 L 0.28125 1.8125 L 1.328125 1.8125 C 1.671875 1.8125 1.953125 1.75 2.171875 1.625 C 2.398438 1.507812 2.59375 1.242188 2.75 0.828125 L 2.953125 0.296875 L 0.09375 -7.078125 L 1.953125 -7.078125 L 3.765625 -1.921875 L 5.6875 -7.078125 L 7.484375 -7.078125 L 4.015625 1.578125 C 3.753906 2.234375 3.429688 2.707031 3.046875 3 C 2.660156 3.289062 2.175781 3.4375 1.59375 3.4375 C 1.351562 3.4375 1.125 3.421875 0.90625 3.390625 C 0.6875 3.359375 0.476562 3.320312 0.28125 3.28125 Z M 0.28125 3.28125 "/></g></g></g><g fill="#ffffff" fill-opacity="1"><g transform="translate(59.543945, 14.111567)"><g><path d="M 0.484375 -3.546875 C 0.484375 -4.285156 0.644531 -4.929688 0.96875 -5.484375 C 1.289062 -6.046875 1.738281 -6.484375 2.3125 -6.796875 C 2.882812 -7.109375 3.535156 -7.265625 4.265625 -7.265625 C 5.003906 -7.265625 5.65625 -7.109375 6.21875 -6.796875 C 6.789062 -6.484375 7.238281 -6.046875 7.5625 -5.484375 C 7.882812 -4.929688 8.046875 -4.285156 8.046875 -3.546875 C 8.046875 -2.816406 7.882812 -2.171875 7.5625 -1.609375 C 7.238281 -1.046875 6.789062 -0.609375 6.21875 -0.296875 C 5.65625 0.015625 5.003906 0.171875 4.265625 0.171875 C 3.535156 0.171875 2.882812 0.015625 2.3125 -0.296875 C 1.738281 -0.609375 1.289062 -1.046875 0.96875 -1.609375 C 0.644531 -2.171875 0.484375 -2.816406 0.484375 -3.546875 Z M 2.234375 -3.546875 C 2.234375 -2.910156 2.421875 -2.390625 2.796875 -1.984375 C 3.171875 -1.585938 3.660156 -1.390625 4.265625 -1.390625 C 4.867188 -1.390625 5.359375 -1.585938 5.734375 -1.984375 C 6.109375 -2.390625 6.296875 -2.910156 6.296875 -3.546875 C 6.296875 -4.191406 6.109375 -4.710938 5.734375 -5.109375 C 5.359375 -5.503906 4.867188 -5.703125 4.265625 -5.703125 C 3.660156 -5.703125 3.171875 -5.503906 2.796875 -5.109375 C 2.421875 -4.710938 2.234375 -4.191406 2.234375 -3.546875 Z M 2.234375 -3.546875 "/></g></g></g><g fill="#ffffff" fill-opacity="1"><g transform="translate(68.069936, 14.111567)"><g><path d="M 2.640625 0 L 0.90625 0 L 0.90625 -7.078125 L 2.515625 -7.078125 L 2.65625 -6.15625 C 2.875 -6.519531 3.1875 -6.796875 3.59375 -6.984375 C 4 -7.179688 4.441406 -7.28125 4.921875 -7.28125 C 5.804688 -7.28125 6.472656 -7.019531 6.921875 -6.5 C 7.378906 -5.976562 7.609375 -5.257812 7.609375 -4.34375 L 7.609375 0 L 5.875 0 L 5.875 -3.9375 C 5.875 -4.53125 5.734375 -4.972656 5.453125 -5.265625 C 5.179688 -5.554688 4.820312 -5.703125 4.375 -5.703125 C 3.84375 -5.703125 3.421875 -5.53125 3.109375 -5.1875 C 2.796875 -4.84375 2.640625 -4.382812 2.640625 -3.8125 Z M 2.640625 0 "/></g></g></g><g fill="#ffffff" fill-opacity="1"><g transform="translate(76.495788, 14.111567)"><g><path d="M 3.8125 0.1875 C 3.132812 0.1875 2.539062 0.03125 2.03125 -0.28125 C 1.53125 -0.59375 1.144531 -1.023438 0.875 -1.578125 C 0.613281 -2.140625 0.484375 -2.78125 0.484375 -3.5 C 0.484375 -4.238281 0.617188 -4.890625 0.890625 -5.453125 C 1.160156 -6.023438 1.550781 -6.472656 2.0625 -6.796875 C 2.582031 -7.117188 3.195312 -7.28125 3.90625 -7.28125 C 4.40625 -7.28125 4.859375 -7.179688 5.265625 -6.984375 C 5.671875 -6.796875 5.988281 -6.523438 6.21875 -6.171875 L 6.21875 -10.65625 L 7.9375 -10.65625 L 7.9375 0 L 6.34375 0 L 6.21875 -1.109375 C 6.007812 -0.691406 5.6875 -0.367188 5.25 -0.140625 C 4.820312 0.078125 4.34375 0.1875 3.8125 0.1875 Z M 4.1875 -1.421875 C 4.800781 -1.421875 5.289062 -1.617188 5.65625 -2.015625 C 6.019531 -2.410156 6.203125 -2.925781 6.203125 -3.5625 C 6.203125 -4.195312 6.019531 -4.710938 5.65625 -5.109375 C 5.289062 -5.515625 4.800781 -5.71875 4.1875 -5.71875 C 3.582031 -5.71875 3.101562 -5.515625 2.75 -5.109375 C 2.40625 -4.710938 2.234375 -4.195312 2.234375 -3.5625 C 2.234375 -2.9375 2.40625 -2.421875 2.75 -2.015625 C 3.101562 -1.617188 3.582031 -1.421875 4.1875 -1.421875 Z M 4.1875 -1.421875 "/></g></g></g><g fill="#ffffff" fill-opacity="1"><g transform="translate(85.351166, 14.111567)"><g/></g></g><g fill="#ffffff" fill-opacity="1"><g transform="translate(35.253511, 34.095118)"><g><path d="M 7.65625 0 L 1.15625 0 L 1.15625 -10.46875 L 7.65625 -10.46875 L 7.65625 -8.78125 L 2.984375 -8.78125 L 2.984375 -6.078125 L 7.171875 -6.078125 L 7.171875 -4.46875 L 2.984375 -4.46875 L 2.984375 -1.6875 L 7.65625 -1.6875 Z M 7.65625 0 "/></g></g></g><g fill="#ffffff" fill-opacity="1"><g transform="translate(43.736587, 34.095118)"><g><path d="M 0.484375 -3.546875 C 0.484375 -4.285156 0.632812 -4.929688 0.9375 -5.484375 C 1.238281 -6.046875 1.65625 -6.484375 2.1875 -6.796875 C 2.71875 -7.117188 3.328125 -7.28125 4.015625 -7.28125 C 4.984375 -7.28125 5.773438 -7.03125 6.390625 -6.53125 C 7.003906 -6.03125 7.359375 -5.359375 7.453125 -4.515625 L 5.703125 -4.515625 C 5.609375 -4.910156 5.421875 -5.207031 5.140625 -5.40625 C 4.859375 -5.613281 4.507812 -5.71875 4.09375 -5.71875 C 3.539062 -5.71875 3.09375 -5.519531 2.75 -5.125 C 2.40625 -4.738281 2.234375 -4.210938 2.234375 -3.546875 C 2.234375 -2.878906 2.394531 -2.351562 2.71875 -1.96875 C 3.039062 -1.582031 3.476562 -1.390625 4.03125 -1.390625 C 4.46875 -1.390625 4.832031 -1.492188 5.125 -1.703125 C 5.414062 -1.910156 5.609375 -2.207031 5.703125 -2.59375 L 7.46875 -2.59375 C 7.40625 -2.039062 7.21875 -1.554688 6.90625 -1.140625 C 6.59375 -0.722656 6.191406 -0.394531 5.703125 -0.15625 C 5.210938 0.0703125 4.65625 0.1875 4.03125 0.1875 C 3.320312 0.1875 2.703125 0.03125 2.171875 -0.28125 C 1.640625 -0.59375 1.222656 -1.03125 0.921875 -1.59375 C 0.628906 -2.15625 0.484375 -2.804688 0.484375 -3.546875 Z M 0.484375 -3.546875 "/></g></g></g><g fill="#ffffff" fill-opacity="1"><g transform="translate(51.604528, 34.095118)"><g><path d="M 0.484375 -3.546875 C 0.484375 -4.285156 0.644531 -4.929688 0.96875 -5.484375 C 1.289062 -6.046875 1.738281 -6.484375 2.3125 -6.796875 C 2.882812 -7.109375 3.535156 -7.265625 4.265625 -7.265625 C 5.003906 -7.265625 5.65625 -7.109375 6.21875 -6.796875 C 6.789062 -6.484375 7.238281 -6.046875 7.5625 -5.484375 C 7.882812 -4.929688 8.046875 -4.285156 8.046875 -3.546875 C 8.046875 -2.816406 7.882812 -2.171875 7.5625 -1.609375 C 7.238281 -1.046875 6.789062 -0.609375 6.21875 -0.296875 C 5.65625 0.015625 5.003906 0.171875 4.265625 0.171875 C 3.535156 0.171875 2.882812 0.015625 2.3125 -0.296875 C 1.738281 -0.609375 1.289062 -1.046875 0.96875 -1.609375 C 0.644531 -2.171875 0.484375 -2.816406 0.484375 -3.546875 Z M 2.234375 -3.546875 C 2.234375 -2.910156 2.421875 -2.390625 2.796875 -1.984375 C 3.171875 -1.585938 3.660156 -1.390625 4.265625 -1.390625 C 4.867188 -1.390625 5.359375 -1.585938 5.734375 -1.984375 C 6.109375 -2.390625 6.296875 -2.910156 6.296875 -3.546875 C 6.296875 -4.191406 6.109375 -4.710938 5.734375 -5.109375 C 5.359375 -5.503906 4.867188 -5.703125 4.265625 -5.703125 C 3.660156 -5.703125 3.171875 -5.503906 2.796875 -5.109375 C 2.421875 -4.710938 2.234375 -4.191406 2.234375 -3.546875 Z M 2.234375 -3.546875 "/></g></g></g><g fill="#ffffff" fill-opacity="1"><g transform="translate(60.130519, 34.095118)"><g><path d="M 2.640625 0 L 0.90625 0 L 0.90625 -7.078125 L 2.5 -7.078125 L 2.640625 -6.234375 C 2.828125 -6.535156 3.097656 -6.785156 3.453125 -6.984375 C 3.804688 -7.179688 4.234375 -7.28125 4.734375 -7.28125 C 5.265625 -7.28125 5.71875 -7.160156 6.09375 -6.921875 C 6.46875 -6.679688 6.742188 -6.351562 6.921875 -5.9375 C 7.109375 -6.351562 7.398438 -6.679688 7.796875 -6.921875 C 8.191406 -7.160156 8.65625 -7.28125 9.1875 -7.28125 C 10.050781 -7.28125 10.707031 -7.039062 11.15625 -6.5625 C 11.613281 -6.09375 11.84375 -5.445312 11.84375 -4.625 L 11.84375 0 L 10.125 0 L 10.125 -4.171875 C 10.125 -4.671875 10 -5.050781 9.75 -5.3125 C 9.5 -5.570312 9.164062 -5.703125 8.75 -5.703125 C 8.320312 -5.703125 7.960938 -5.5625 7.671875 -5.28125 C 7.390625 -5.007812 7.25 -4.582031 7.25 -4 L 7.25 0 L 5.515625 0 L 5.515625 -4.171875 C 5.515625 -4.671875 5.390625 -5.050781 5.140625 -5.3125 C 4.898438 -5.570312 4.570312 -5.703125 4.15625 -5.703125 C 3.738281 -5.703125 3.378906 -5.5625 3.078125 -5.28125 C 2.785156 -5 2.640625 -4.570312 2.640625 -4 Z M 2.640625 0 "/></g></g></g><g fill="#ffffff" fill-opacity="1"><g transform="translate(72.790748, 34.095118)"><g><path d="M 2.640625 0 L 0.90625 0 L 0.90625 -7.078125 L 2.5 -7.078125 L 2.640625 -6.234375 C 2.828125 -6.535156 3.097656 -6.785156 3.453125 -6.984375 C 3.804688 -7.179688 4.234375 -7.28125 4.734375 -7.28125 C 5.265625 -7.28125 5.71875 -7.160156 6.09375 -6.921875 C 6.46875 -6.679688 6.742188 -6.351562 6.921875 -5.9375 C 7.109375 -6.351562 7.398438 -6.679688 7.796875 -6.921875 C 8.191406 -7.160156 8.65625 -7.28125 9.1875 -7.28125 C 10.050781 -7.28125 10.707031 -7.039062 11.15625 -6.5625 C 11.613281 -6.09375 11.84375 -5.445312 11.84375 -4.625 L 11.84375 0 L 10.125 0 L 10.125 -4.171875 C 10.125 -4.671875 10 -5.050781 9.75 -5.3125 C 9.5 -5.570312 9.164062 -5.703125 8.75 -5.703125 C 8.320312 -5.703125 7.960938 -5.5625 7.671875 -5.28125 C 7.390625 -5.007812 7.25 -4.582031 7.25 -4 L 7.25 0 L 5.515625 0 L 5.515625 -4.171875 C 5.515625 -4.671875 5.390625 -5.050781 5.140625 -5.3125 C 4.898438 -5.570312 4.570312 -5.703125 4.15625 -5.703125 C 3.738281 -5.703125 3.378906 -5.5625 3.078125 -5.28125 C 2.785156 -5 2.640625 -4.570312 2.640625 -4 Z M 2.640625 0 "/></g></g></g><g fill="#ffffff" fill-opacity="1"><g transform="translate(85.450977, 34.095118)"><g><path d="M 4.0625 0.1875 C 3.363281 0.1875 2.742188 0.03125 2.203125 -0.28125 C 1.671875 -0.601562 1.25 -1.046875 0.9375 -1.609375 C 0.632812 -2.171875 0.484375 -2.8125 0.484375 -3.53125 C 0.484375 -4.28125 0.632812 -4.9375 0.9375 -5.5 C 1.238281 -6.0625 1.65625 -6.5 2.1875 -6.8125 C 2.71875 -7.125 3.320312 -7.28125 4 -7.28125 C 4.707031 -7.28125 5.320312 -7.128906 5.84375 -6.828125 C 6.363281 -6.535156 6.765625 -6.117188 7.046875 -5.578125 C 7.328125 -5.035156 7.46875 -4.394531 7.46875 -3.65625 L 7.46875 -3.140625 L 2.140625 -3.125 C 2.273438 -1.875 2.925781 -1.25 4.09375 -1.25 C 5.070312 -1.25 5.664062 -1.597656 5.875 -2.296875 L 7.5 -2.296875 C 7.34375 -1.515625 6.960938 -0.90625 6.359375 -0.46875 C 5.753906 -0.03125 4.988281 0.1875 4.0625 0.1875 Z M 4.015625 -5.859375 C 2.972656 -5.859375 2.363281 -5.316406 2.1875 -4.234375 L 5.734375 -4.234375 C 5.734375 -4.722656 5.578125 -5.113281 5.265625 -5.40625 C 4.960938 -5.707031 4.546875 -5.859375 4.015625 -5.859375 Z M 4.015625 -5.859375 "/></g></g></g><g fill="#ffffff" fill-opacity="1"><g transform="translate(93.419058, 34.095118)"><g><path d="M 5.34375 -7.09375 L 5.34375 -5.484375 L 4.6875 -5.484375 C 4.0625 -5.484375 3.5625 -5.3125 3.1875 -4.96875 C 2.820312 -4.632812 2.640625 -4.125 2.640625 -3.4375 L 2.640625 0 L 0.90625 0 L 0.90625 -7.0625 L 2.546875 -7.0625 L 2.640625 -6.03125 C 2.796875 -6.382812 3.035156 -6.664062 3.359375 -6.875 C 3.691406 -7.09375 4.09375 -7.203125 4.5625 -7.203125 C 4.8125 -7.203125 5.070312 -7.164062 5.34375 -7.09375 Z M 5.34375 -7.09375 "/></g></g></g><g fill="#ffffff" fill-opacity="1"><g transform="translate(98.797841, 34.095118)"><g><path d="M 0.484375 -3.546875 C 0.484375 -4.285156 0.632812 -4.929688 0.9375 -5.484375 C 1.238281 -6.046875 1.65625 -6.484375 2.1875 -6.796875 C 2.71875 -7.117188 3.328125 -7.28125 4.015625 -7.28125 C 4.984375 -7.28125 5.773438 -7.03125 6.390625 -6.53125 C 7.003906 -6.03125 7.359375 -5.359375 7.453125 -4.515625 L 5.703125 -4.515625 C 5.609375 -4.910156 5.421875 -5.207031 5.140625 -5.40625 C 4.859375 -5.613281 4.507812 -5.71875 4.09375 -5.71875 C 3.539062 -5.71875 3.09375 -5.519531 2.75 -5.125 C 2.40625 -4.738281 2.234375 -4.210938 2.234375 -3.546875 C 2.234375 -2.878906 2.394531 -2.351562 2.71875 -1.96875 C 3.039062 -1.582031 3.476562 -1.390625 4.03125 -1.390625 C 4.46875 -1.390625 4.832031 -1.492188 5.125 -1.703125 C 5.414062 -1.910156 5.609375 -2.207031 5.703125 -2.59375 L 7.46875 -2.59375 C 7.40625 -2.039062 7.21875 -1.554688 6.90625 -1.140625 C 6.59375 -0.722656 6.191406 -0.394531 5.703125 -0.15625 C 5.210938 0.0703125 4.65625 0.1875 4.03125 0.1875 C 3.320312 0.1875 2.703125 0.03125 2.171875 -0.28125 C 1.640625 -0.59375 1.222656 -1.03125 0.921875 -1.59375 C 0.628906 -2.15625 0.484375 -2.804688 0.484375 -3.546875 Z M 0.484375 -3.546875 "/></g></g></g><g fill="#ffffff" fill-opacity="1"><g transform="translate(106.665782, 34.095118)"><g><path d="M 4.0625 0.1875 C 3.363281 0.1875 2.742188 0.03125 2.203125 -0.28125 C 1.671875 -0.601562 1.25 -1.046875 0.9375 -1.609375 C 0.632812 -2.171875 0.484375 -2.8125 0.484375 -3.53125 C 0.484375 -4.28125 0.632812 -4.9375 0.9375 -5.5 C 1.238281 -6.0625 1.65625 -6.5 2.1875 -6.8125 C 2.71875 -7.125 3.320312 -7.28125 4 -7.28125 C 4.707031 -7.28125 5.320312 -7.128906 5.84375 -6.828125 C 6.363281 -6.535156 6.765625 -6.117188 7.046875 -5.578125 C 7.328125 -5.035156 7.46875 -4.394531 7.46875 -3.65625 L 7.46875 -3.140625 L 2.140625 -3.125 C 2.273438 -1.875 2.925781 -1.25 4.09375 -1.25 C 5.070312 -1.25 5.664062 -1.597656 5.875 -2.296875 L 7.5 -2.296875 C 7.34375 -1.515625 6.960938 -0.90625 6.359375 -0.46875 C 5.753906 -0.03125 4.988281 0.1875 4.0625 0.1875 Z M 4.015625 -5.859375 C 2.972656 -5.859375 2.363281 -5.316406 2.1875 -4.234375 L 5.734375 -4.234375 C 5.734375 -4.722656 5.578125 -5.113281 5.265625 -5.40625 C 4.960938 -5.707031 4.546875 -5.859375 4.015625 -5.859375 Z M 4.015625 -5.859375 "/></g></g></g><g transform="matrix(1, 0, 0, 1, 10, 2)"><g clip-path="url(#830d41280f)"><g clip-path="url(#ae14442480)"><path fill="#ffffff" d="M 17.367188 17.332031 L 6.699219 17.332031 C 6.542969 17.332031 6.410156 17.386719 6.300781 17.5 C 6.1875 17.609375 6.132812 17.742188 6.132812 17.898438 C 6.132812 18.054688 6.1875 18.1875 6.300781 18.296875 C 6.410156 18.410156 6.542969 18.464844 6.699219 18.464844 L 17.367188 18.464844 C 17.472656 18.464844 17.570312 18.488281 17.664062 18.542969 C 17.757812 18.59375 17.832031 18.664062 17.886719 18.753906 C 17.945312 18.84375 17.972656 18.945312 17.980469 19.050781 C 17.984375 19.15625 17.960938 19.257812 17.914062 19.351562 C 17.269531 20.648438 16.347656 23.539062 15.886719 24.460938 C 15.773438 24.6875 15.589844 24.800781 15.335938 24.800781 L 7.484375 24.800781 C 7.207031 24.800781 7.015625 24.671875 6.914062 24.410156 C 6.914062 24.40625 5.144531 16.480469 5.144531 16.480469 C 5.074219 16.15625 4.949219 15.851562 4.773438 15.570312 C 4.597656 15.289062 4.382812 15.042969 4.121094 14.832031 C 3.863281 14.625 3.578125 14.464844 3.261719 14.355469 C 2.949219 14.246094 2.625 14.191406 2.292969 14.191406 L 1.589844 14.191406 C 1.433594 14.183594 1.296875 14.234375 1.183594 14.347656 C 1.070312 14.460938 1.019531 14.597656 1.027344 14.757812 C 1.027344 14.914062 1.082031 15.046875 1.191406 15.15625 C 1.300781 15.265625 1.433594 15.320312 1.589844 15.320312 L 2.292969 15.320312 C 2.714844 15.320312 3.085938 15.453125 3.414062 15.714844 C 3.742188 15.976562 3.953125 16.3125 4.042969 16.722656 L 5.816406 24.683594 C 5.820312 24.699219 5.824219 24.71875 5.828125 24.738281 C 5.949219 25.09375 6.160156 25.382812 6.464844 25.601562 C 6.769531 25.820312 7.109375 25.929688 7.484375 25.929688 L 15.335938 25.929688 C 15.667969 25.929688 15.972656 25.84375 16.253906 25.667969 C 16.535156 25.496094 16.75 25.261719 16.898438 24.964844 C 17.355469 24.046875 18.277344 21.15625 18.925781 19.859375 C 18.992188 19.722656 19.039062 19.585938 19.070312 19.441406 C 19.101562 19.292969 19.113281 19.148438 19.109375 19 C 19.101562 18.851562 19.074219 18.707031 19.03125 18.5625 C 18.988281 18.421875 18.925781 18.285156 18.847656 18.160156 C 18.769531 18.035156 18.679688 17.917969 18.570312 17.816406 C 18.464844 17.714844 18.34375 17.625 18.214844 17.554688 C 18.085938 17.480469 17.949219 17.425781 17.804688 17.390625 C 17.660156 17.351562 17.515625 17.332031 17.367188 17.332031 Z M 17.367188 17.332031 " fill-opacity="1" fill-rule="evenodd"/></g><g clip-path="url(#938603d261)"><path fill="#ffffff" d="M 8.097656 26.59375 C 7.792969 26.59375 7.496094 26.652344 7.214844 26.769531 C 6.933594 26.886719 6.683594 27.050781 6.464844 27.269531 C 6.25 27.484375 6.082031 27.734375 5.964844 28.019531 C 5.847656 28.300781 5.789062 28.59375 5.789062 28.902344 C 5.789062 29.207031 5.847656 29.503906 5.964844 29.785156 C 6.082031 30.066406 6.25 30.316406 6.464844 30.535156 C 6.683594 30.75 6.933594 30.917969 7.214844 31.035156 C 7.496094 31.152344 7.792969 31.210938 8.097656 31.210938 C 8.40625 31.210938 8.699219 31.152344 8.980469 31.035156 C 9.265625 30.917969 9.515625 30.75 9.730469 30.535156 C 9.949219 30.316406 10.113281 30.066406 10.230469 29.785156 C 10.347656 29.5 10.40625 29.207031 10.40625 28.902344 C 10.40625 28.59375 10.347656 28.300781 10.230469 28.015625 C 10.113281 27.734375 9.945312 27.484375 9.730469 27.269531 C 9.515625 27.050781 9.265625 26.886719 8.980469 26.769531 C 8.699219 26.652344 8.40625 26.59375 8.097656 26.59375 Z M 8.097656 30.078125 C 7.941406 30.078125 7.792969 30.050781 7.648438 29.992188 C 7.503906 29.929688 7.375 29.84375 7.265625 29.734375 C 7.15625 29.625 7.070312 29.496094 7.007812 29.351562 C 6.949219 29.207031 6.917969 29.058594 6.917969 28.902344 C 6.917969 28.746094 6.949219 28.59375 7.007812 28.449219 C 7.070312 28.304688 7.152344 28.179688 7.265625 28.066406 C 7.375 27.957031 7.503906 27.871094 7.648438 27.8125 C 7.792969 27.753906 7.941406 27.722656 8.097656 27.722656 C 8.253906 27.722656 8.40625 27.753906 8.550781 27.8125 C 8.691406 27.871094 8.820312 27.957031 8.929688 28.066406 C 9.042969 28.179688 9.128906 28.304688 9.1875 28.449219 C 9.246094 28.59375 9.277344 28.746094 9.277344 28.902344 C 9.277344 29.058594 9.246094 29.207031 9.1875 29.351562 C 9.128906 29.496094 9.042969 29.625 8.929688 29.734375 C 8.820312 29.84375 8.695312 29.929688 8.550781 29.988281 C 8.40625 30.050781 8.253906 30.078125 8.097656 30.078125 Z M 8.097656 30.078125 " fill-opacity="1" fill-rule="evenodd"/></g><g clip-path="url(#b29baff804)"><path fill="#ffffff" d="M 14.535156 26.59375 C 14.226562 26.59375 13.933594 26.652344 13.648438 26.769531 C 13.367188 26.886719 13.117188 27.050781 12.902344 27.269531 C 12.683594 27.484375 12.515625 27.734375 12.398438 28.019531 C 12.28125 28.300781 12.222656 28.59375 12.222656 28.902344 C 12.226562 29.207031 12.285156 29.503906 12.402344 29.785156 C 12.519531 30.066406 12.683594 30.316406 12.902344 30.535156 C 13.117188 30.75 13.367188 30.917969 13.648438 31.035156 C 13.933594 31.152344 14.226562 31.210938 14.535156 31.210938 C 14.839844 31.210938 15.132812 31.152344 15.417969 31.035156 C 15.699219 30.917969 15.949219 30.75 16.167969 30.535156 C 16.382812 30.316406 16.550781 30.066406 16.667969 29.785156 C 16.785156 29.5 16.84375 29.207031 16.84375 28.902344 C 16.84375 28.59375 16.785156 28.300781 16.667969 28.015625 C 16.550781 27.734375 16.382812 27.484375 16.164062 27.269531 C 15.949219 27.050781 15.699219 26.886719 15.417969 26.769531 C 15.132812 26.652344 14.839844 26.59375 14.535156 26.59375 Z M 14.535156 30.078125 C 14.378906 30.078125 14.226562 30.050781 14.082031 29.992188 C 13.9375 29.929688 13.8125 29.84375 13.699219 29.734375 C 13.589844 29.625 13.503906 29.496094 13.445312 29.351562 C 13.386719 29.207031 13.355469 29.058594 13.355469 28.902344 C 13.355469 28.746094 13.382812 28.59375 13.445312 28.449219 C 13.503906 28.304688 13.589844 28.179688 13.699219 28.066406 C 13.808594 27.957031 13.9375 27.871094 14.082031 27.8125 C 14.226562 27.753906 14.375 27.722656 14.53125 27.722656 C 14.6875 27.722656 14.839844 27.753906 14.984375 27.8125 C 15.128906 27.871094 15.257812 27.957031 15.367188 28.066406 C 15.476562 28.179688 15.5625 28.304688 15.621094 28.449219 C 15.683594 28.59375 15.710938 28.746094 15.710938 28.902344 C 15.710938 29.058594 15.683594 29.207031 15.621094 29.351562 C 15.5625 29.496094 15.476562 29.625 15.367188 29.734375 C 15.257812 29.84375 15.128906 29.929688 14.984375 29.988281 C 14.839844 30.050781 14.691406 30.078125 14.535156 30.078125 Z M 14.535156 30.078125 " fill-opacity="1" fill-rule="evenodd"/></g><g clip-path="url(#2cc6bfa8f5)"><path fill="#ffffff" d="M 7.765625 1.089844 C 7.652344 1.09375 7.546875 1.125 7.445312 1.179688 C 7.347656 1.230469 7.265625 1.304688 7.203125 1.398438 C 7.136719 1.492188 7.097656 1.59375 7.085938 1.707031 C 7.070312 1.820312 7.082031 1.929688 7.117188 2.035156 L 7.597656 3.46875 C 5.6875 4.035156 4.203125 5.578125 3.707031 7.519531 C 2.808594 7.605469 2.105469 8.355469 2.105469 9.277344 C 2.105469 10.257812 2.898438 11.054688 3.882812 11.054688 L 3.945312 11.054688 C 4.789062 13.140625 6.828125 14.609375 9.214844 14.609375 L 12.058594 14.609375 C 14.445312 14.609375 16.484375 13.140625 17.332031 11.054688 L 17.394531 11.054688 C 18.375 11.054688 19.171875 10.257812 19.171875 9.277344 C 19.171875 8.355469 18.464844 7.605469 17.566406 7.519531 C 17.074219 5.578125 15.589844 4.035156 13.679688 3.46875 L 14.15625 2.035156 C 14.195312 1.925781 14.207031 1.816406 14.191406 1.703125 C 14.175781 1.589844 14.132812 1.484375 14.066406 1.390625 C 14 1.296875 13.917969 1.222656 13.816406 1.171875 C 13.714844 1.117188 13.605469 1.089844 13.492188 1.089844 C 13.335938 1.089844 13.195312 1.132812 13.066406 1.226562 C 12.941406 1.316406 12.855469 1.4375 12.808594 1.585938 L 12.253906 3.242188 C 12.1875 3.242188 12.125 3.234375 12.058594 3.234375 L 9.214844 3.234375 C 9.148438 3.234375 9.085938 3.242188 9.019531 3.242188 L 8.46875 1.585938 C 8.417969 1.433594 8.332031 1.3125 8.199219 1.21875 C 8.070312 1.128906 7.921875 1.085938 7.765625 1.089844 Z M 9.214844 4.65625 L 12.058594 4.65625 C 14.414062 4.65625 16.328125 6.570312 16.328125 8.921875 C 16.328125 11.273438 14.414062 13.1875 12.058594 13.1875 L 9.214844 13.1875 C 6.863281 13.1875 4.949219 11.273438 4.949219 8.921875 C 4.949219 6.570312 6.863281 4.65625 9.214844 4.65625 Z M 9.214844 6.078125 C 7.648438 6.078125 6.371094 7.351562 6.371094 8.921875 C 6.371094 10.492188 7.648438 11.765625 9.214844 11.765625 L 12.058594 11.765625 C 13.628906 11.765625 14.90625 10.492188 14.90625 8.921875 C 14.90625 7.351562 13.628906 6.078125 12.058594 6.078125 Z M 8.503906 8.210938 C 8.898438 8.210938 9.214844 8.53125 9.214844 8.921875 C 9.214844 9.3125 8.898438 9.632812 8.503906 9.632812 C 8.113281 9.632812 7.792969 9.3125 7.792969 8.921875 C 7.792969 8.53125 8.113281 8.210938 8.503906 8.210938 Z M 12.769531 8.210938 C 13.164062 8.210938 13.480469 8.53125 13.480469 8.921875 C 13.480469 9.3125 13.164062 9.632812 12.769531 9.632812 C 12.378906 9.632812 12.058594 9.3125 12.058594 8.921875 C 12.058594 8.53125 12.378906 8.210938 12.769531 8.210938 Z M 12.769531 8.210938 " fill-opacity="1" fill-rule="nonzero"/></g></g></g></svg>