<svg xmlns="http://www.w3.org/2000/svg" xmlns:xlink="http://www.w3.org/1999/xlink" width="160" zoomAndPan="magnify" viewBox="0 0 120 37.5" height="50" preserveAspectRatio="xMidYMid meet" version="1.0"><defs><g/><clipPath id="5727219e16"><path d="M 0.789062 0 L 119.210938 0 L 119.210938 37.007812 L 0.789062 37.007812 Z M 0.789062 0 " clip-rule="nonzero"/></clipPath><clipPath id="1f4c9e6e5f"><rect x="0" width="81" y="0" height="37"/></clipPath><clipPath id="bc23a1d813"><path d="M 1.027344 13.015625 L 19.476562 13.015625 L 19.476562 26 L 1.027344 26 Z M 1.027344 13.015625 " clip-rule="nonzero"/></clipPath><clipPath id="a22b2760a3"><path d="M 5 25 L 11 25 L 11 30.664062 L 5 30.664062 Z M 5 25 " clip-rule="nonzero"/></clipPath><clipPath id="777d5a0c74"><path d="M 12 25 L 18 25 L 18 30.664062 L 12 30.664062 Z M 12 25 " clip-rule="nonzero"/></clipPath><clipPath id="68cd4b5425"><path d="M 2.097656 0.101562 L 18.941406 0.101562 L 18.941406 13.734375 L 2.097656 13.734375 Z M 2.097656 0.101562 " clip-rule="nonzero"/></clipPath><clipPath id="bf767ff88d"><rect x="0" width="20" y="0" height="31"/></clipPath></defs><g clip-path="url(#5727219e16)"><path fill="#ffffff" d="M 0.789062 0 L 119.210938 0 L 119.210938 37.007812 L 0.789062 37.007812 Z M 0.789062 0 " fill-opacity="1" fill-rule="nonzero"/><path fill="#ffffff" d="M 0.789062 0 L 119.210938 0 L 119.210938 37.007812 L 0.789062 37.007812 Z M 0.789062 0 " fill-opacity="1" fill-rule="nonzero"/></g><g transform="matrix(1, 0, 0, 1, 35, -0.000000000000001478)"><g clip-path="url(#1f4c9e6e5f)"><g fill="#000000" fill-opacity="1"><g transform="translate(0.253511, 13.136313)"><g><path d="M 1.15625 0 L 1.15625 -10.46875 L 5.328125 -10.46875 C 6.359375 -10.46875 7.164062 -10.210938 7.75 -9.703125 C 8.34375 -9.203125 8.640625 -8.515625 8.640625 -7.640625 C 8.640625 -6.460938 8.140625 -5.660156 7.140625 -5.234375 C 8.242188 -4.867188 8.796875 -4.066406 8.796875 -2.828125 C 8.796875 -1.929688 8.5 -1.234375 7.90625 -0.734375 C 7.3125 -0.242188 6.472656 0 5.390625 0 Z M 5.171875 -8.84375 L 2.984375 -8.84375 L 2.984375 -6 L 5.203125 -6 C 5.710938 -6 6.097656 -6.125 6.359375 -6.375 C 6.628906 -6.625 6.765625 -6.984375 6.765625 -7.453125 C 6.765625 -7.898438 6.625 -8.242188 6.34375 -8.484375 C 6.070312 -8.722656 5.679688 -8.84375 5.171875 -8.84375 Z M 5.328125 -4.453125 L 2.984375 -4.453125 L 2.984375 -1.625 L 5.328125 -1.625 C 5.835938 -1.625 6.226562 -1.742188 6.5 -1.984375 C 6.78125 -2.234375 6.921875 -2.59375 6.921875 -3.0625 C 6.921875 -3.507812 6.78125 -3.851562 6.5 -4.09375 C 6.21875 -4.332031 5.828125 -4.453125 5.328125 -4.453125 Z M 5.328125 -4.453125 "/></g></g></g><g fill="#000000" fill-opacity="1"><g transform="translate(9.565383, 13.136313)"><g><path d="M 4.0625 0.1875 C 3.363281 0.1875 2.742188 0.03125 2.203125 -0.28125 C 1.671875 -0.601562 1.25 -1.046875 0.9375 -1.609375 C 0.632812 -2.171875 0.484375 -2.8125 0.484375 -3.53125 C 0.484375 -4.28125 0.632812 -4.9375 0.9375 -5.5 C 1.238281 -6.0625 1.65625 -6.5 2.1875 -6.8125 C 2.71875 -7.125 3.320312 -7.28125 4 -7.28125 C 4.707031 -7.28125 5.320312 -7.128906 5.84375 -6.828125 C 6.363281 -6.535156 6.765625 -6.117188 7.046875 -5.578125 C 7.328125 -5.035156 7.46875 -4.394531 7.46875 -3.65625 L 7.46875 -3.140625 L 2.140625 -3.125 C 2.273438 -1.875 2.925781 -1.25 4.09375 -1.25 C 5.070312 -1.25 5.664062 -1.597656 5.875 -2.296875 L 7.5 -2.296875 C 7.34375 -1.515625 6.960938 -0.90625 6.359375 -0.46875 C 5.753906 -0.03125 4.988281 0.1875 4.0625 0.1875 Z M 4.015625 -5.859375 C 2.972656 -5.859375 2.363281 -5.316406 2.1875 -4.234375 L 5.734375 -4.234375 C 5.734375 -4.722656 5.578125 -5.113281 5.265625 -5.40625 C 4.960938 -5.707031 4.546875 -5.859375 4.015625 -5.859375 Z M 4.015625 -5.859375 "/></g></g></g><g fill="#000000" fill-opacity="1"><g transform="translate(17.289479, 13.136313)"><g><path d="M 0.28125 3.28125 L 0.28125 1.8125 L 1.328125 1.8125 C 1.671875 1.8125 1.953125 1.75 2.171875 1.625 C 2.398438 1.507812 2.59375 1.242188 2.75 0.828125 L 2.953125 0.296875 L 0.09375 -7.078125 L 1.953125 -7.078125 L 3.765625 -1.921875 L 5.6875 -7.078125 L 7.484375 -7.078125 L 4.015625 1.578125 C 3.753906 2.234375 3.429688 2.707031 3.046875 3 C 2.660156 3.289062 2.175781 3.4375 1.59375 3.4375 C 1.351562 3.4375 1.125 3.421875 0.90625 3.390625 C 0.6875 3.359375 0.476562 3.320312 0.28125 3.28125 Z M 0.28125 3.28125 "/></g></g></g><g fill="#000000" fill-opacity="1"><g transform="translate(24.541518, 13.136313)"><g><path d="M 0.484375 -3.546875 C 0.484375 -4.285156 0.644531 -4.929688 0.96875 -5.484375 C 1.289062 -6.046875 1.738281 -6.484375 2.3125 -6.796875 C 2.882812 -7.109375 3.535156 -7.265625 4.265625 -7.265625 C 5.003906 -7.265625 5.65625 -7.109375 6.21875 -6.796875 C 6.789062 -6.484375 7.238281 -6.046875 7.5625 -5.484375 C 7.882812 -4.929688 8.046875 -4.285156 8.046875 -3.546875 C 8.046875 -2.816406 7.882812 -2.171875 7.5625 -1.609375 C 7.238281 -1.046875 6.789062 -0.609375 6.21875 -0.296875 C 5.65625 0.015625 5.003906 0.171875 4.265625 0.171875 C 3.535156 0.171875 2.882812 0.015625 2.3125 -0.296875 C 1.738281 -0.609375 1.289062 -1.046875 0.96875 -1.609375 C 0.644531 -2.171875 0.484375 -2.816406 0.484375 -3.546875 Z M 2.234375 -3.546875 C 2.234375 -2.910156 2.421875 -2.390625 2.796875 -1.984375 C 3.171875 -1.585938 3.660156 -1.390625 4.265625 -1.390625 C 4.867188 -1.390625 5.359375 -1.585938 5.734375 -1.984375 C 6.109375 -2.390625 6.296875 -2.910156 6.296875 -3.546875 C 6.296875 -4.191406 6.109375 -4.710938 5.734375 -5.109375 C 5.359375 -5.503906 4.867188 -5.703125 4.265625 -5.703125 C 3.660156 -5.703125 3.171875 -5.503906 2.796875 -5.109375 C 2.421875 -4.710938 2.234375 -4.191406 2.234375 -3.546875 Z M 2.234375 -3.546875 "/></g></g></g><g fill="#000000" fill-opacity="1"><g transform="translate(33.066673, 13.136313)"><g><path d="M 2.640625 0 L 0.90625 0 L 0.90625 -7.078125 L 2.515625 -7.078125 L 2.65625 -6.15625 C 2.875 -6.519531 3.1875 -6.796875 3.59375 -6.984375 C 4 -7.179688 4.441406 -7.28125 4.921875 -7.28125 C 5.804688 -7.28125 6.472656 -7.019531 6.921875 -6.5 C 7.378906 -5.976562 7.609375 -5.257812 7.609375 -4.34375 L 7.609375 0 L 5.875 0 L 5.875 -3.9375 C 5.875 -4.53125 5.734375 -4.972656 5.453125 -5.265625 C 5.179688 -5.554688 4.820312 -5.703125 4.375 -5.703125 C 3.84375 -5.703125 3.421875 -5.53125 3.109375 -5.1875 C 2.796875 -4.84375 2.640625 -4.382812 2.640625 -3.8125 Z M 2.640625 0 "/></g></g></g><g fill="#000000" fill-opacity="1"><g transform="translate(41.491708, 13.136313)"><g><path d="M 3.8125 0.1875 C 3.132812 0.1875 2.539062 0.03125 2.03125 -0.28125 C 1.53125 -0.59375 1.144531 -1.023438 0.875 -1.578125 C 0.613281 -2.140625 0.484375 -2.78125 0.484375 -3.5 C 0.484375 -4.238281 0.617188 -4.890625 0.890625 -5.453125 C 1.160156 -6.023438 1.550781 -6.472656 2.0625 -6.796875 C 2.582031 -7.117188 3.195312 -7.28125 3.90625 -7.28125 C 4.40625 -7.28125 4.859375 -7.179688 5.265625 -6.984375 C 5.671875 -6.796875 5.988281 -6.523438 6.21875 -6.171875 L 6.21875 -10.65625 L 7.9375 -10.65625 L 7.9375 0 L 6.34375 0 L 6.21875 -1.109375 C 6.007812 -0.691406 5.6875 -0.367188 5.25 -0.140625 C 4.820312 0.078125 4.34375 0.1875 3.8125 0.1875 Z M 4.1875 -1.421875 C 4.800781 -1.421875 5.289062 -1.617188 5.65625 -2.015625 C 6.019531 -2.410156 6.203125 -2.925781 6.203125 -3.5625 C 6.203125 -4.195312 6.019531 -4.710938 5.65625 -5.109375 C 5.289062 -5.515625 4.800781 -5.71875 4.1875 -5.71875 C 3.582031 -5.71875 3.101562 -5.515625 2.75 -5.109375 C 2.40625 -4.710938 2.234375 -4.195312 2.234375 -3.5625 C 2.234375 -2.9375 2.40625 -2.421875 2.75 -2.015625 C 3.101562 -1.617188 3.582031 -1.421875 4.1875 -1.421875 Z M 4.1875 -1.421875 "/></g></g></g><g fill="#000000" fill-opacity="1"><g transform="translate(50.353282, 13.136313)"><g/></g></g><g fill="#000000" fill-opacity="1"><g transform="translate(0.253511, 33.070799)"><g><path d="M 7.65625 0 L 1.15625 0 L 1.15625 -10.46875 L 7.65625 -10.46875 L 7.65625 -8.78125 L 2.984375 -8.78125 L 2.984375 -6.078125 L 7.171875 -6.078125 L 7.171875 -4.46875 L 2.984375 -4.46875 L 2.984375 -1.6875 L 7.65625 -1.6875 Z M 7.65625 0 "/></g></g></g><g fill="#000000" fill-opacity="1"><g transform="translate(8.735755, 33.070799)"><g><path d="M 0.484375 -3.546875 C 0.484375 -4.285156 0.632812 -4.929688 0.9375 -5.484375 C 1.238281 -6.046875 1.65625 -6.484375 2.1875 -6.796875 C 2.71875 -7.117188 3.328125 -7.28125 4.015625 -7.28125 C 4.984375 -7.28125 5.773438 -7.03125 6.390625 -6.53125 C 7.003906 -6.03125 7.359375 -5.359375 7.453125 -4.515625 L 5.703125 -4.515625 C 5.609375 -4.910156 5.421875 -5.207031 5.140625 -5.40625 C 4.859375 -5.613281 4.507812 -5.71875 4.09375 -5.71875 C 3.539062 -5.71875 3.09375 -5.519531 2.75 -5.125 C 2.40625 -4.738281 2.234375 -4.210938 2.234375 -3.546875 C 2.234375 -2.878906 2.394531 -2.351562 2.71875 -1.96875 C 3.039062 -1.582031 3.476562 -1.390625 4.03125 -1.390625 C 4.46875 -1.390625 4.832031 -1.492188 5.125 -1.703125 C 5.414062 -1.910156 5.609375 -2.207031 5.703125 -2.59375 L 7.46875 -2.59375 C 7.40625 -2.039062 7.21875 -1.554688 6.90625 -1.140625 C 6.59375 -0.722656 6.191406 -0.394531 5.703125 -0.15625 C 5.210938 0.0703125 4.65625 0.1875 4.03125 0.1875 C 3.320312 0.1875 2.703125 0.03125 2.171875 -0.28125 C 1.640625 -0.59375 1.222656 -1.03125 0.921875 -1.59375 C 0.628906 -2.15625 0.484375 -2.804688 0.484375 -3.546875 Z M 0.484375 -3.546875 "/></g></g></g><g fill="#000000" fill-opacity="1"><g transform="translate(16.602931, 33.070799)"><g><path d="M 0.484375 -3.546875 C 0.484375 -4.285156 0.644531 -4.929688 0.96875 -5.484375 C 1.289062 -6.046875 1.738281 -6.484375 2.3125 -6.796875 C 2.882812 -7.109375 3.535156 -7.265625 4.265625 -7.265625 C 5.003906 -7.265625 5.65625 -7.109375 6.21875 -6.796875 C 6.789062 -6.484375 7.238281 -6.046875 7.5625 -5.484375 C 7.882812 -4.929688 8.046875 -4.285156 8.046875 -3.546875 C 8.046875 -2.816406 7.882812 -2.171875 7.5625 -1.609375 C 7.238281 -1.046875 6.789062 -0.609375 6.21875 -0.296875 C 5.65625 0.015625 5.003906 0.171875 4.265625 0.171875 C 3.535156 0.171875 2.882812 0.015625 2.3125 -0.296875 C 1.738281 -0.609375 1.289062 -1.046875 0.96875 -1.609375 C 0.644531 -2.171875 0.484375 -2.816406 0.484375 -3.546875 Z M 2.234375 -3.546875 C 2.234375 -2.910156 2.421875 -2.390625 2.796875 -1.984375 C 3.171875 -1.585938 3.660156 -1.390625 4.265625 -1.390625 C 4.867188 -1.390625 5.359375 -1.585938 5.734375 -1.984375 C 6.109375 -2.390625 6.296875 -2.910156 6.296875 -3.546875 C 6.296875 -4.191406 6.109375 -4.710938 5.734375 -5.109375 C 5.359375 -5.503906 4.867188 -5.703125 4.265625 -5.703125 C 3.660156 -5.703125 3.171875 -5.503906 2.796875 -5.109375 C 2.421875 -4.710938 2.234375 -4.191406 2.234375 -3.546875 Z M 2.234375 -3.546875 "/></g></g></g><g fill="#000000" fill-opacity="1"><g transform="translate(25.128086, 33.070799)"><g><path d="M 2.640625 0 L 0.90625 0 L 0.90625 -7.078125 L 2.5 -7.078125 L 2.640625 -6.234375 C 2.828125 -6.535156 3.097656 -6.785156 3.453125 -6.984375 C 3.804688 -7.179688 4.234375 -7.28125 4.734375 -7.28125 C 5.265625 -7.28125 5.71875 -7.160156 6.09375 -6.921875 C 6.46875 -6.679688 6.742188 -6.351562 6.921875 -5.9375 C 7.109375 -6.351562 7.398438 -6.679688 7.796875 -6.921875 C 8.191406 -7.160156 8.65625 -7.28125 9.1875 -7.28125 C 10.050781 -7.28125 10.707031 -7.039062 11.15625 -6.5625 C 11.613281 -6.09375 11.84375 -5.445312 11.84375 -4.625 L 11.84375 0 L 10.125 0 L 10.125 -4.171875 C 10.125 -4.671875 10 -5.050781 9.75 -5.3125 C 9.5 -5.570312 9.164062 -5.703125 8.75 -5.703125 C 8.320312 -5.703125 7.960938 -5.5625 7.671875 -5.28125 C 7.390625 -5.007812 7.25 -4.582031 7.25 -4 L 7.25 0 L 5.515625 0 L 5.515625 -4.171875 C 5.515625 -4.671875 5.390625 -5.050781 5.140625 -5.3125 C 4.898438 -5.570312 4.570312 -5.703125 4.15625 -5.703125 C 3.738281 -5.703125 3.378906 -5.5625 3.078125 -5.28125 C 2.785156 -5 2.640625 -4.570312 2.640625 -4 Z M 2.640625 0 "/></g></g></g><g fill="#000000" fill-opacity="1"><g transform="translate(37.787089, 33.070799)"><g><path d="M 2.640625 0 L 0.90625 0 L 0.90625 -7.078125 L 2.5 -7.078125 L 2.640625 -6.234375 C 2.828125 -6.535156 3.097656 -6.785156 3.453125 -6.984375 C 3.804688 -7.179688 4.234375 -7.28125 4.734375 -7.28125 C 5.265625 -7.28125 5.71875 -7.160156 6.09375 -6.921875 C 6.46875 -6.679688 6.742188 -6.351562 6.921875 -5.9375 C 7.109375 -6.351562 7.398438 -6.679688 7.796875 -6.921875 C 8.191406 -7.160156 8.65625 -7.28125 9.1875 -7.28125 C 10.050781 -7.28125 10.707031 -7.039062 11.15625 -6.5625 C 11.613281 -6.09375 11.84375 -5.445312 11.84375 -4.625 L 11.84375 0 L 10.125 0 L 10.125 -4.171875 C 10.125 -4.671875 10 -5.050781 9.75 -5.3125 C 9.5 -5.570312 9.164062 -5.703125 8.75 -5.703125 C 8.320312 -5.703125 7.960938 -5.5625 7.671875 -5.28125 C 7.390625 -5.007812 7.25 -4.582031 7.25 -4 L 7.25 0 L 5.515625 0 L 5.515625 -4.171875 C 5.515625 -4.671875 5.390625 -5.050781 5.140625 -5.3125 C 4.898438 -5.570312 4.570312 -5.703125 4.15625 -5.703125 C 3.738281 -5.703125 3.378906 -5.5625 3.078125 -5.28125 C 2.785156 -5 2.640625 -4.570312 2.640625 -4 Z M 2.640625 0 "/></g></g></g><g fill="#000000" fill-opacity="1"><g transform="translate(50.446091, 33.070799)"><g><path d="M 4.0625 0.1875 C 3.363281 0.1875 2.742188 0.03125 2.203125 -0.28125 C 1.671875 -0.601562 1.25 -1.046875 0.9375 -1.609375 C 0.632812 -2.171875 0.484375 -2.8125 0.484375 -3.53125 C 0.484375 -4.28125 0.632812 -4.9375 0.9375 -5.5 C 1.238281 -6.0625 1.65625 -6.5 2.1875 -6.8125 C 2.71875 -7.125 3.320312 -7.28125 4 -7.28125 C 4.707031 -7.28125 5.320312 -7.128906 5.84375 -6.828125 C 6.363281 -6.535156 6.765625 -6.117188 7.046875 -5.578125 C 7.328125 -5.035156 7.46875 -4.394531 7.46875 -3.65625 L 7.46875 -3.140625 L 2.140625 -3.125 C 2.273438 -1.875 2.925781 -1.25 4.09375 -1.25 C 5.070312 -1.25 5.664062 -1.597656 5.875 -2.296875 L 7.5 -2.296875 C 7.34375 -1.515625 6.960938 -0.90625 6.359375 -0.46875 C 5.753906 -0.03125 4.988281 0.1875 4.0625 0.1875 Z M 4.015625 -5.859375 C 2.972656 -5.859375 2.363281 -5.316406 2.1875 -4.234375 L 5.734375 -4.234375 C 5.734375 -4.722656 5.578125 -5.113281 5.265625 -5.40625 C 4.960938 -5.707031 4.546875 -5.859375 4.015625 -5.859375 Z M 4.015625 -5.859375 "/></g></g></g><g fill="#000000" fill-opacity="1"><g transform="translate(58.413399, 33.070799)"><g><path d="M 5.34375 -7.09375 L 5.34375 -5.484375 L 4.6875 -5.484375 C 4.0625 -5.484375 3.5625 -5.3125 3.1875 -4.96875 C 2.820312 -4.632812 2.640625 -4.125 2.640625 -3.4375 L 2.640625 0 L 0.90625 0 L 0.90625 -7.0625 L 2.546875 -7.0625 L 2.640625 -6.03125 C 2.796875 -6.382812 3.035156 -6.664062 3.359375 -6.875 C 3.691406 -7.09375 4.09375 -7.203125 4.5625 -7.203125 C 4.8125 -7.203125 5.070312 -7.164062 5.34375 -7.09375 Z M 5.34375 -7.09375 "/></g></g></g><g fill="#000000" fill-opacity="1"><g transform="translate(63.791643, 33.070799)"><g><path d="M 0.484375 -3.546875 C 0.484375 -4.285156 0.632812 -4.929688 0.9375 -5.484375 C 1.238281 -6.046875 1.65625 -6.484375 2.1875 -6.796875 C 2.71875 -7.117188 3.328125 -7.28125 4.015625 -7.28125 C 4.984375 -7.28125 5.773438 -7.03125 6.390625 -6.53125 C 7.003906 -6.03125 7.359375 -5.359375 7.453125 -4.515625 L 5.703125 -4.515625 C 5.609375 -4.910156 5.421875 -5.207031 5.140625 -5.40625 C 4.859375 -5.613281 4.507812 -5.71875 4.09375 -5.71875 C 3.539062 -5.71875 3.09375 -5.519531 2.75 -5.125 C 2.40625 -4.738281 2.234375 -4.210938 2.234375 -3.546875 C 2.234375 -2.878906 2.394531 -2.351562 2.71875 -1.96875 C 3.039062 -1.582031 3.476562 -1.390625 4.03125 -1.390625 C 4.46875 -1.390625 4.832031 -1.492188 5.125 -1.703125 C 5.414062 -1.910156 5.609375 -2.207031 5.703125 -2.59375 L 7.46875 -2.59375 C 7.40625 -2.039062 7.21875 -1.554688 6.90625 -1.140625 C 6.59375 -0.722656 6.191406 -0.394531 5.703125 -0.15625 C 5.210938 0.0703125 4.65625 0.1875 4.03125 0.1875 C 3.320312 0.1875 2.703125 0.03125 2.171875 -0.28125 C 1.640625 -0.59375 1.222656 -1.03125 0.921875 -1.59375 C 0.628906 -2.15625 0.484375 -2.804688 0.484375 -3.546875 Z M 0.484375 -3.546875 "/></g></g></g><g fill="#000000" fill-opacity="1"><g transform="translate(71.658818, 33.070799)"><g><path d="M 4.0625 0.1875 C 3.363281 0.1875 2.742188 0.03125 2.203125 -0.28125 C 1.671875 -0.601562 1.25 -1.046875 0.9375 -1.609375 C 0.632812 -2.171875 0.484375 -2.8125 0.484375 -3.53125 C 0.484375 -4.28125 0.632812 -4.9375 0.9375 -5.5 C 1.238281 -6.0625 1.65625 -6.5 2.1875 -6.8125 C 2.71875 -7.125 3.320312 -7.28125 4 -7.28125 C 4.707031 -7.28125 5.320312 -7.128906 5.84375 -6.828125 C 6.363281 -6.535156 6.765625 -6.117188 7.046875 -5.578125 C 7.328125 -5.035156 7.46875 -4.394531 7.46875 -3.65625 L 7.46875 -3.140625 L 2.140625 -3.125 C 2.273438 -1.875 2.925781 -1.25 4.09375 -1.25 C 5.070312 -1.25 5.664062 -1.597656 5.875 -2.296875 L 7.5 -2.296875 C 7.34375 -1.515625 6.960938 -0.90625 6.359375 -0.46875 C 5.753906 -0.03125 4.988281 0.1875 4.0625 0.1875 Z M 4.015625 -5.859375 C 2.972656 -5.859375 2.363281 -5.316406 2.1875 -4.234375 L 5.734375 -4.234375 C 5.734375 -4.722656 5.578125 -5.113281 5.265625 -5.40625 C 4.960938 -5.707031 4.546875 -5.859375 4.015625 -5.859375 Z M 4.015625 -5.859375 "/></g></g></g></g></g><g transform="matrix(1, 0, 0, 1, 10, 3)"><g clip-path="url(#bf767ff88d)"><g clip-path="url(#bc23a1d813)"><path fill="#000000" d="M 17.636719 16.363281 L 6.792969 16.363281 C 6.632812 16.363281 6.5 16.417969 6.386719 16.527344 C 6.273438 16.640625 6.21875 16.773438 6.21875 16.933594 C 6.21875 17.089844 6.273438 17.222656 6.386719 17.335938 C 6.5 17.445312 6.632812 17.5 6.792969 17.5 L 17.636719 17.5 C 17.746094 17.5 17.847656 17.527344 17.941406 17.582031 C 18.035156 17.632812 18.109375 17.703125 18.167969 17.796875 C 18.222656 17.886719 18.253906 17.984375 18.261719 18.09375 C 18.265625 18.199219 18.242188 18.300781 18.195312 18.398438 C 17.539062 19.707031 16.601562 22.621094 16.132812 23.550781 C 16.015625 23.777344 15.832031 23.890625 15.574219 23.890625 L 7.589844 23.890625 C 7.308594 23.890625 7.113281 23.761719 7.011719 23.5 C 7.011719 23.496094 5.214844 15.503906 5.214844 15.503906 C 5.140625 15.175781 5.015625 14.867188 4.835938 14.582031 C 4.660156 14.296875 4.4375 14.050781 4.175781 13.839844 C 3.910156 13.628906 3.617188 13.46875 3.300781 13.359375 C 2.980469 13.246094 2.652344 13.191406 2.3125 13.191406 L 1.601562 13.191406 C 1.4375 13.183594 1.300781 13.238281 1.1875 13.351562 C 1.070312 13.464844 1.019531 13.601562 1.027344 13.761719 C 1.027344 13.921875 1.082031 14.054688 1.195312 14.164062 C 1.304688 14.277344 1.441406 14.332031 1.601562 14.332031 L 2.3125 14.332031 C 2.742188 14.332031 3.121094 14.464844 3.453125 14.730469 C 3.785156 14.996094 4 15.332031 4.09375 15.746094 L 5.894531 23.773438 C 5.898438 23.792969 5.902344 23.8125 5.910156 23.828125 C 6.03125 24.1875 6.246094 24.480469 6.554688 24.699219 C 6.863281 24.921875 7.210938 25.03125 7.589844 25.03125 L 15.574219 25.03125 C 15.910156 25.03125 16.21875 24.945312 16.507812 24.769531 C 16.792969 24.59375 17.007812 24.359375 17.160156 24.058594 C 17.628906 23.132812 18.5625 20.214844 19.222656 18.90625 C 19.289062 18.773438 19.339844 18.632812 19.371094 18.488281 C 19.402344 18.339844 19.414062 18.191406 19.40625 18.042969 C 19.402344 17.890625 19.375 17.746094 19.332031 17.601562 C 19.285156 17.460938 19.222656 17.324219 19.144531 17.195312 C 19.066406 17.070312 18.972656 16.953125 18.863281 16.847656 C 18.753906 16.746094 18.632812 16.65625 18.5 16.585938 C 18.367188 16.511719 18.230469 16.457031 18.082031 16.417969 C 17.9375 16.378906 17.789062 16.363281 17.636719 16.363281 Z M 17.636719 16.363281 " fill-opacity="1" fill-rule="evenodd"/></g><g clip-path="url(#a22b2760a3)"><path fill="#000000" d="M 8.214844 25.699219 C 7.902344 25.699219 7.605469 25.757812 7.316406 25.878906 C 7.03125 25.996094 6.777344 26.164062 6.554688 26.382812 C 6.335938 26.601562 6.164062 26.851562 6.046875 27.136719 C 5.929688 27.421875 5.867188 27.71875 5.867188 28.03125 C 5.867188 28.339844 5.929688 28.636719 6.046875 28.921875 C 6.167969 29.207031 6.335938 29.457031 6.554688 29.675781 C 6.777344 29.894531 7.03125 30.0625 7.316406 30.179688 C 7.605469 30.300781 7.90625 30.359375 8.214844 30.359375 C 8.527344 30.359375 8.828125 30.300781 9.113281 30.179688 C 9.402344 30.0625 9.65625 29.894531 9.875 29.675781 C 10.09375 29.457031 10.265625 29.207031 10.382812 28.917969 C 10.503906 28.632812 10.5625 28.335938 10.5625 28.027344 C 10.5625 27.71875 10.503906 27.421875 10.382812 27.136719 C 10.265625 26.851562 10.09375 26.601562 9.875 26.382812 C 9.65625 26.164062 9.402344 25.996094 9.113281 25.878906 C 8.824219 25.761719 8.527344 25.699219 8.214844 25.699219 Z M 8.214844 29.21875 C 8.054688 29.21875 7.902344 29.1875 7.757812 29.128906 C 7.609375 29.066406 7.480469 28.980469 7.367188 28.871094 C 7.257812 28.757812 7.167969 28.628906 7.109375 28.484375 C 7.046875 28.339844 7.015625 28.1875 7.015625 28.03125 C 7.015625 27.871094 7.046875 27.71875 7.109375 27.574219 C 7.167969 27.429688 7.253906 27.300781 7.367188 27.1875 C 7.480469 27.078125 7.609375 26.992188 7.757812 26.929688 C 7.902344 26.871094 8.054688 26.839844 8.214844 26.839844 C 8.375 26.839844 8.527344 26.871094 8.671875 26.929688 C 8.820312 26.992188 8.949219 27.078125 9.0625 27.1875 C 9.175781 27.300781 9.261719 27.429688 9.320312 27.574219 C 9.382812 27.71875 9.414062 27.871094 9.414062 28.027344 C 9.414062 28.1875 9.382812 28.339844 9.324219 28.484375 C 9.261719 28.628906 9.175781 28.757812 9.0625 28.871094 C 8.949219 28.980469 8.820312 29.066406 8.675781 29.128906 C 8.527344 29.1875 8.375 29.21875 8.214844 29.21875 Z M 8.214844 29.21875 " fill-opacity="1" fill-rule="evenodd"/></g><g clip-path="url(#777d5a0c74)"><path fill="#000000" d="M 14.757812 25.699219 C 14.445312 25.699219 14.148438 25.757812 13.859375 25.878906 C 13.570312 25.996094 13.316406 26.164062 13.097656 26.382812 C 12.878906 26.601562 12.707031 26.851562 12.589844 27.136719 C 12.46875 27.421875 12.410156 27.71875 12.410156 28.03125 C 12.410156 28.339844 12.46875 28.636719 12.589844 28.921875 C 12.707031 29.207031 12.878906 29.457031 13.097656 29.675781 C 13.316406 29.894531 13.570312 30.0625 13.859375 30.179688 C 14.148438 30.300781 14.445312 30.359375 14.757812 30.359375 C 15.070312 30.359375 15.367188 30.300781 15.65625 30.179688 C 15.945312 30.0625 16.199219 29.894531 16.417969 29.675781 C 16.636719 29.457031 16.808594 29.207031 16.925781 28.917969 C 17.046875 28.632812 17.105469 28.335938 17.105469 28.027344 C 17.105469 27.71875 17.042969 27.421875 16.925781 27.136719 C 16.804688 26.851562 16.636719 26.601562 16.417969 26.382812 C 16.195312 26.164062 15.941406 25.996094 15.65625 25.878906 C 15.367188 25.757812 15.070312 25.699219 14.757812 25.699219 Z M 14.757812 29.21875 C 14.597656 29.21875 14.445312 29.1875 14.300781 29.128906 C 14.152344 29.066406 14.023438 28.980469 13.910156 28.871094 C 13.796875 28.757812 13.710938 28.628906 13.652344 28.484375 C 13.589844 28.339844 13.558594 28.1875 13.558594 28.03125 C 13.558594 27.871094 13.589844 27.71875 13.648438 27.574219 C 13.710938 27.429688 13.796875 27.300781 13.910156 27.1875 C 14.023438 27.078125 14.152344 26.992188 14.296875 26.929688 C 14.445312 26.871094 14.597656 26.839844 14.757812 26.839844 C 14.914062 26.839844 15.070312 26.871094 15.214844 26.929688 C 15.363281 26.992188 15.492188 27.078125 15.605469 27.1875 C 15.714844 27.300781 15.804688 27.429688 15.863281 27.574219 C 15.925781 27.71875 15.957031 27.871094 15.957031 28.027344 C 15.957031 28.1875 15.925781 28.339844 15.863281 28.484375 C 15.804688 28.628906 15.71875 28.757812 15.605469 28.871094 C 15.492188 28.980469 15.363281 29.066406 15.214844 29.128906 C 15.070312 29.1875 14.917969 29.21875 14.757812 29.21875 Z M 14.757812 29.21875 " fill-opacity="1" fill-rule="evenodd"/></g><g clip-path="url(#68cd4b5425)"><path fill="#000000" d="M 7.683594 0.0898438 C 7.574219 0.09375 7.46875 0.125 7.371094 0.179688 C 7.273438 0.234375 7.195312 0.308594 7.132812 0.402344 C 7.066406 0.496094 7.03125 0.601562 7.015625 0.714844 C 7 0.828125 7.011719 0.9375 7.046875 1.042969 L 7.519531 2.492188 C 5.636719 3.0625 4.171875 4.621094 3.6875 6.578125 C 2.800781 6.667969 2.105469 7.421875 2.105469 8.351562 C 2.105469 9.34375 2.890625 10.148438 3.855469 10.148438 L 3.917969 10.148438 C 4.75 12.25 6.761719 13.734375 9.117188 13.734375 L 11.921875 13.734375 C 14.273438 13.734375 16.285156 12.25 17.117188 10.148438 L 17.179688 10.148438 C 18.148438 10.148438 18.933594 9.34375 18.933594 8.351562 C 18.933594 7.421875 18.238281 6.667969 17.351562 6.578125 C 16.863281 4.621094 15.398438 3.0625 13.519531 2.492188 L 13.988281 1.042969 C 14.027344 0.933594 14.039062 0.824219 14.023438 0.707031 C 14.003906 0.59375 13.964844 0.488281 13.898438 0.394531 C 13.835938 0.300781 13.753906 0.226562 13.652344 0.171875 C 13.550781 0.117188 13.445312 0.0898438 13.332031 0.0898438 C 13.179688 0.0898438 13.039062 0.132812 12.914062 0.226562 C 12.789062 0.320312 12.703125 0.441406 12.65625 0.589844 L 12.113281 2.261719 C 12.046875 2.261719 11.984375 2.253906 11.921875 2.253906 L 9.117188 2.253906 C 9.050781 2.253906 8.988281 2.261719 8.925781 2.261719 L 8.378906 0.589844 C 8.332031 0.4375 8.242188 0.3125 8.113281 0.21875 C 7.984375 0.128906 7.84375 0.0820312 7.683594 0.0898438 Z M 9.117188 3.6875 L 11.921875 3.6875 C 14.242188 3.6875 16.128906 5.621094 16.128906 7.996094 C 16.128906 10.367188 14.242188 12.300781 11.921875 12.300781 L 9.117188 12.300781 C 6.796875 12.300781 4.910156 10.367188 4.910156 7.996094 C 4.910156 5.621094 6.796875 3.6875 9.117188 3.6875 Z M 9.117188 5.125 C 7.570312 5.125 6.3125 6.410156 6.3125 7.996094 C 6.3125 9.578125 7.570312 10.867188 9.117188 10.867188 L 11.921875 10.867188 C 13.46875 10.867188 14.726562 9.578125 14.726562 7.996094 C 14.726562 6.410156 13.46875 5.125 11.921875 5.125 Z M 8.414062 7.277344 C 8.800781 7.277344 9.117188 7.597656 9.117188 7.996094 C 9.117188 8.390625 8.800781 8.710938 8.414062 8.710938 C 8.027344 8.710938 7.714844 8.390625 7.714844 7.996094 C 7.714844 7.597656 8.027344 7.277344 8.414062 7.277344 Z M 12.621094 7.277344 C 13.007812 7.277344 13.324219 7.597656 13.324219 7.996094 C 13.324219 8.390625 13.007812 8.710938 12.621094 8.710938 C 12.234375 8.710938 11.921875 8.390625 11.921875 7.996094 C 11.921875 7.597656 12.234375 7.277344 12.621094 7.277344 Z M 12.621094 7.277344 " fill-opacity="1" fill-rule="nonzero"/></g></g></g></svg>