<svg xmlns="http://www.w3.org/2000/svg" xmlns:xlink="http://www.w3.org/1999/xlink" width="250" zoomAndPan="magnify" viewBox="0 0 187.5 37.5" height="50" preserveAspectRatio="xMidYMid meet" version="1.0"><defs><g/><clipPath id="f28dab70cd"><path d="M 8.316406 15 L 25 15 L 25 29.101562 L 8.316406 29.101562 Z M 8.316406 15 " clip-rule="nonzero"/></clipPath><clipPath id="cef55f28e3"><path d="M 24 7.640625 L 40.882812 7.640625 L 40.882812 22 L 24 22 Z M 24 7.640625 " clip-rule="nonzero"/></clipPath></defs><g clip-path="url(#f28dab70cd)"><path fill="#602fff" d="M 19.191406 25.199219 L 19.191406 27.164062 L 10.289062 23.027344 L 10.289062 21.433594 L 19.191406 17.296875 L 19.191406 19.261719 L 12.457031 22.210938 L 12.457031 22.246094 Z M 24.480469 15.109375 L 9.589844 15.109375 C 8.886719 15.109375 8.316406 15.679688 8.316406 16.382812 L 8.316406 28.074219 C 8.316406 28.777344 8.886719 29.347656 9.589844 29.347656 L 20.347656 29.347656 L 24.480469 15.109375 " fill-opacity="1" fill-rule="nonzero"/></g><g clip-path="url(#cef55f28e3)"><path fill="#fbbf24" d="M 38.648438 15.617188 L 29.742188 19.699219 L 29.742188 17.730469 L 36.625 14.78125 L 36.625 14.746094 L 29.742188 11.796875 L 29.742188 9.828125 L 38.648438 13.910156 Z M 28.613281 7.644531 L 24.480469 21.882812 L 39.34375 21.882812 C 40.046875 21.882812 40.617188 21.3125 40.617188 20.609375 L 40.617188 8.917969 C 40.617188 8.214844 40.046875 7.644531 39.34375 7.644531 L 28.613281 7.644531 " fill-opacity="1" fill-rule="nonzero"/></g><g fill="#602fff" fill-opacity="1"><g transform="translate(48.506967, 26.644737)"><g><path d="M 17.265625 -8.578125 C 17.265625 -7.046875 17.019531 -5.695312 16.53125 -4.53125 C 16.039062 -3.375 15.378906 -2.421875 14.546875 -1.671875 L 17 1.40625 L 13.609375 1.40625 L 12.234375 -0.296875 C 11.296875 0.0546875 10.289062 0.234375 9.21875 0.234375 C 7.695312 0.234375 6.328125 -0.109375 5.109375 -0.796875 C 3.898438 -1.492188 2.941406 -2.5 2.234375 -3.8125 C 1.535156 -5.132812 1.1875 -6.722656 1.1875 -8.578125 C 1.1875 -10.453125 1.535156 -12.046875 2.234375 -13.359375 C 2.941406 -14.671875 3.898438 -15.671875 5.109375 -16.359375 C 6.328125 -17.046875 7.695312 -17.390625 9.21875 -17.390625 C 10.738281 -17.390625 12.101562 -17.046875 13.3125 -16.359375 C 14.53125 -15.671875 15.492188 -14.671875 16.203125 -13.359375 C 16.910156 -12.046875 17.265625 -10.453125 17.265625 -8.578125 Z M 7.96875 -5.96875 L 11.046875 -5.96875 L 12.328125 -4.328125 C 12.722656 -4.804688 13.03125 -5.398438 13.25 -6.109375 C 13.46875 -6.816406 13.578125 -7.640625 13.578125 -8.578125 C 13.578125 -10.398438 13.179688 -11.789062 12.390625 -12.75 C 11.597656 -13.707031 10.539062 -14.1875 9.21875 -14.1875 C 7.90625 -14.1875 6.851562 -13.707031 6.0625 -12.75 C 5.269531 -11.789062 4.875 -10.398438 4.875 -8.578125 C 4.875 -6.765625 5.269531 -5.375 6.0625 -4.40625 C 6.851562 -3.445312 7.90625 -2.96875 9.21875 -2.96875 C 9.550781 -2.96875 9.863281 -3 10.15625 -3.0625 Z M 7.96875 -5.96875 "/></g></g></g><g fill="#602fff" fill-opacity="1"><g transform="translate(66.962405, 26.644737)"><g><path d="M 9.671875 -5.484375 L 9.671875 -12.875 L 13.25 -12.875 L 13.25 0 L 9.8125 0 L 9.8125 -2.34375 L 9.6875 -2.34375 C 9.394531 -1.582031 8.910156 -0.972656 8.234375 -0.515625 C 7.566406 -0.0546875 6.75 0.171875 5.78125 0.171875 C 4.488281 0.171875 3.441406 -0.257812 2.640625 -1.125 C 1.835938 -1.988281 1.429688 -3.171875 1.421875 -4.671875 L 1.421875 -12.875 L 5 -12.875 L 5 -5.3125 C 5 -4.550781 5.195312 -3.945312 5.59375 -3.5 C 6 -3.0625 6.539062 -2.84375 7.21875 -2.84375 C 7.863281 -2.84375 8.4375 -3.066406 8.9375 -3.515625 C 9.4375 -3.960938 9.679688 -4.617188 9.671875 -5.484375 Z M 9.671875 -5.484375 "/></g></g></g><g fill="#602fff" fill-opacity="1"><g transform="translate(81.62459, 26.644737)"><g><path d="M 1.421875 0 L 1.421875 -12.875 L 5 -12.875 L 5 0 Z M 3.21875 -14.53125 C 2.6875 -14.53125 2.234375 -14.707031 1.859375 -15.0625 C 1.484375 -15.414062 1.296875 -15.84375 1.296875 -16.34375 C 1.296875 -16.832031 1.484375 -17.253906 1.859375 -17.609375 C 2.234375 -17.960938 2.6875 -18.140625 3.21875 -18.140625 C 3.75 -18.140625 4.203125 -17.960938 4.578125 -17.609375 C 4.960938 -17.253906 5.15625 -16.832031 5.15625 -16.34375 C 5.15625 -15.84375 4.960938 -15.414062 4.578125 -15.0625 C 4.203125 -14.707031 3.75 -14.53125 3.21875 -14.53125 Z M 3.21875 -14.53125 "/></g></g></g><g fill="#602fff" fill-opacity="1"><g transform="translate(88.038774, 26.644737)"><g><path d="M 7.234375 0.25 C 5.921875 0.25 4.789062 -0.03125 3.84375 -0.59375 C 2.894531 -1.15625 2.164062 -1.9375 1.65625 -2.9375 C 1.15625 -3.9375 0.90625 -5.085938 0.90625 -6.390625 C 0.90625 -7.703125 1.160156 -8.859375 1.671875 -9.859375 C 2.179688 -10.859375 2.90625 -11.632812 3.84375 -12.1875 C 4.789062 -12.75 5.914062 -13.03125 7.21875 -13.03125 C 8.34375 -13.03125 9.328125 -12.828125 10.171875 -12.421875 C 11.015625 -12.015625 11.679688 -11.441406 12.171875 -10.703125 C 12.660156 -9.972656 12.929688 -9.109375 12.984375 -8.109375 L 9.625 -8.109375 C 9.519531 -8.753906 9.265625 -9.269531 8.859375 -9.65625 C 8.460938 -10.050781 7.9375 -10.25 7.28125 -10.25 C 6.457031 -10.25 5.789062 -9.914062 5.28125 -9.25 C 4.78125 -8.59375 4.53125 -7.65625 4.53125 -6.4375 C 4.53125 -5.207031 4.78125 -4.253906 5.28125 -3.578125 C 5.78125 -2.910156 6.445312 -2.578125 7.28125 -2.578125 C 7.894531 -2.578125 8.410156 -2.757812 8.828125 -3.125 C 9.242188 -3.5 9.507812 -4.03125 9.625 -4.71875 L 12.984375 -4.71875 C 12.929688 -3.738281 12.664062 -2.875 12.1875 -2.125 C 11.707031 -1.375 11.046875 -0.789062 10.203125 -0.375 C 9.367188 0.0390625 8.378906 0.25 7.234375 0.25 Z M 7.234375 0.25 "/></g></g></g><g fill="#602fff" fill-opacity="1"><g transform="translate(101.888718, 26.644737)"><g><path d="M 1.421875 0 L 1.421875 -17.15625 L 5 -17.15625 L 5 -7.984375 L 5.1875 -7.984375 L 9.3125 -12.875 L 13.40625 -12.875 L 8.625 -7.296875 L 13.65625 0 L 9.46875 0 L 5.953125 -5.1875 L 5 -4.09375 L 5 0 Z M 1.421875 0 "/></g></g></g><g fill="#602fff" fill-opacity="1"><g transform="translate(115.604687, 26.644737)"><g><path d="M 16.625 -11.15625 L 12.96875 -11.15625 C 12.820312 -12.09375 12.414062 -12.832031 11.75 -13.375 C 11.09375 -13.914062 10.265625 -14.1875 9.265625 -14.1875 C 7.929688 -14.1875 6.863281 -13.695312 6.0625 -12.71875 C 5.269531 -11.75 4.875 -10.367188 4.875 -8.578125 C 4.875 -6.742188 5.273438 -5.347656 6.078125 -4.390625 C 6.890625 -3.441406 7.941406 -2.96875 9.234375 -2.96875 C 10.203125 -2.96875 11.019531 -3.21875 11.6875 -3.71875 C 12.363281 -4.226562 12.789062 -4.941406 12.96875 -5.859375 L 16.625 -5.84375 C 16.5 -4.789062 16.125 -3.800781 15.5 -2.875 C 14.882812 -1.945312 14.046875 -1.195312 12.984375 -0.625 C 11.921875 -0.0507812 10.65625 0.234375 9.1875 0.234375 C 7.65625 0.234375 6.285156 -0.109375 5.078125 -0.796875 C 3.878906 -1.492188 2.929688 -2.5 2.234375 -3.8125 C 1.535156 -5.125 1.1875 -6.710938 1.1875 -8.578125 C 1.1875 -10.453125 1.535156 -12.046875 2.234375 -13.359375 C 2.941406 -14.671875 3.898438 -15.671875 5.109375 -16.359375 C 6.316406 -17.046875 7.675781 -17.390625 9.1875 -17.390625 C 10.507812 -17.390625 11.703125 -17.144531 12.765625 -16.65625 C 13.828125 -16.164062 14.695312 -15.457031 15.375 -14.53125 C 16.050781 -13.601562 16.46875 -12.476562 16.625 -11.15625 Z M 16.625 -11.15625 "/></g></g></g><g fill="#602fff" fill-opacity="1"><g transform="translate(133.339994, 26.644737)"><g><path d="M 7.234375 0.25 C 5.929688 0.25 4.804688 -0.0234375 3.859375 -0.578125 C 2.921875 -1.140625 2.191406 -1.914062 1.671875 -2.90625 C 1.160156 -3.90625 0.90625 -5.066406 0.90625 -6.390625 C 0.90625 -7.710938 1.160156 -8.875 1.671875 -9.875 C 2.191406 -10.875 2.921875 -11.648438 3.859375 -12.203125 C 4.804688 -12.753906 5.929688 -13.03125 7.234375 -13.03125 C 8.535156 -13.03125 9.660156 -12.753906 10.609375 -12.203125 C 11.554688 -11.648438 12.285156 -10.875 12.796875 -9.875 C 13.316406 -8.875 13.578125 -7.710938 13.578125 -6.390625 C 13.578125 -5.066406 13.316406 -3.90625 12.796875 -2.90625 C 12.285156 -1.914062 11.554688 -1.140625 10.609375 -0.578125 C 9.660156 -0.0234375 8.535156 0.25 7.234375 0.25 Z M 7.25 -2.515625 C 8.132812 -2.515625 8.800781 -2.878906 9.25 -3.609375 C 9.707031 -4.347656 9.9375 -5.28125 9.9375 -6.40625 C 9.9375 -7.53125 9.707031 -8.460938 9.25 -9.203125 C 8.800781 -9.941406 8.132812 -10.3125 7.25 -10.3125 C 6.351562 -10.3125 5.675781 -9.941406 5.21875 -9.203125 C 4.757812 -8.460938 4.53125 -7.53125 4.53125 -6.40625 C 4.53125 -5.28125 4.757812 -4.347656 5.21875 -3.609375 C 5.675781 -2.878906 6.351562 -2.515625 7.25 -2.515625 Z M 7.25 -2.515625 "/></g></g></g><g fill="#602fff" fill-opacity="1"><g transform="translate(147.809591, 26.644737)"><g><path d="M 6.171875 0.203125 C 5.191406 0.203125 4.304688 -0.046875 3.515625 -0.546875 C 2.734375 -1.054688 2.109375 -1.800781 1.640625 -2.78125 C 1.179688 -3.769531 0.953125 -4.984375 0.953125 -6.421875 C 0.953125 -7.890625 1.1875 -9.113281 1.65625 -10.09375 C 2.132812 -11.082031 2.769531 -11.816406 3.5625 -12.296875 C 4.351562 -12.785156 5.21875 -13.03125 6.15625 -13.03125 C 6.875 -13.03125 7.472656 -12.910156 7.953125 -12.671875 C 8.441406 -12.429688 8.832031 -12.128906 9.125 -11.765625 C 9.425781 -11.410156 9.65625 -11.054688 9.8125 -10.703125 L 9.921875 -10.703125 L 9.921875 -17.15625 L 13.484375 -17.15625 L 13.484375 0 L 9.96875 0 L 9.96875 -2.0625 L 9.8125 -2.0625 C 9.65625 -1.707031 9.421875 -1.351562 9.109375 -1 C 8.804688 -0.65625 8.410156 -0.367188 7.921875 -0.140625 C 7.441406 0.0859375 6.859375 0.203125 6.171875 0.203125 Z M 7.296875 -2.625 C 8.160156 -2.625 8.828125 -2.972656 9.296875 -3.671875 C 9.765625 -4.367188 10 -5.289062 10 -6.4375 C 10 -7.582031 9.765625 -8.492188 9.296875 -9.171875 C 8.828125 -9.859375 8.160156 -10.203125 7.296875 -10.203125 C 6.410156 -10.203125 5.738281 -9.851562 5.28125 -9.15625 C 4.820312 -8.457031 4.59375 -7.550781 4.59375 -6.4375 C 4.59375 -5.3125 4.820312 -4.394531 5.28125 -3.6875 C 5.75 -2.976562 6.421875 -2.625 7.296875 -2.625 Z M 7.296875 -2.625 "/></g></g></g><g fill="#602fff" fill-opacity="1"><g transform="translate(162.789982, 26.644737)"><g><path d="M 7.296875 0.25 C 5.972656 0.25 4.832031 -0.015625 3.875 -0.546875 C 2.925781 -1.085938 2.191406 -1.851562 1.671875 -2.84375 C 1.160156 -3.84375 0.90625 -5.019531 0.90625 -6.375 C 0.90625 -7.695312 1.160156 -8.859375 1.671875 -9.859375 C 2.191406 -10.859375 2.914062 -11.632812 3.84375 -12.1875 C 4.78125 -12.75 5.878906 -13.03125 7.140625 -13.03125 C 8.273438 -13.03125 9.300781 -12.789062 10.21875 -12.3125 C 11.132812 -11.832031 11.859375 -11.109375 12.390625 -10.140625 C 12.929688 -9.171875 13.203125 -7.957031 13.203125 -6.5 L 13.203125 -5.515625 L 4.4375 -5.515625 C 4.4375 -4.554688 4.695312 -3.796875 5.21875 -3.234375 C 5.738281 -2.679688 6.445312 -2.40625 7.34375 -2.40625 C 7.945312 -2.40625 8.460938 -2.53125 8.890625 -2.78125 C 9.328125 -3.039062 9.632812 -3.414062 9.8125 -3.90625 L 13.125 -3.6875 C 12.875 -2.488281 12.234375 -1.53125 11.203125 -0.8125 C 10.179688 -0.101562 8.878906 0.25 7.296875 0.25 Z M 4.4375 -7.734375 L 9.84375 -7.734375 C 9.832031 -8.492188 9.582031 -9.125 9.09375 -9.625 C 8.613281 -10.125 7.984375 -10.375 7.203125 -10.375 C 6.410156 -10.375 5.757812 -10.113281 5.25 -9.59375 C 4.738281 -9.082031 4.46875 -8.460938 4.4375 -7.734375 Z M 4.4375 -7.734375 "/></g></g></g></svg>