<svg xmlns="http://www.w3.org/2000/svg" xmlns:xlink="http://www.w3.org/1999/xlink" width="250" zoomAndPan="magnify" viewBox="0 0 187.5 37.5" height="50" preserveAspectRatio="xMidYMid meet" version="1.0"><defs><g/><clipPath id="95e51af406"><path d="M 7 2.460938 L 38 2.460938 L 38 33.546875 L 7 33.546875 Z M 7 2.460938 " clip-rule="nonzero"/></clipPath><clipPath id="d1c81372a0"><path d="M 3.207031 15 L 7 15 L 7 27 L 3.207031 27 Z M 3.207031 15 " clip-rule="nonzero"/></clipPath><clipPath id="38e497d154"><path d="M 38 15 L 41.695312 15 L 41.695312 27 L 38 27 Z M 38 15 " clip-rule="nonzero"/></clipPath></defs><g fill="#603fff" fill-opacity="1"><g transform="translate(46.731081, 27.616432)"><g><path d="M 16.796875 -14.359375 L 16.796875 5.140625 L 11.765625 5.140625 L 11.765625 -1.265625 C 10.785156 -0.265625 9.453125 0.234375 7.765625 0.234375 C 6.453125 0.234375 5.257812 -0.0664062 4.1875 -0.671875 C 3.125 -1.285156 2.28125 -2.148438 1.65625 -3.265625 C 1.03125 -4.390625 0.71875 -5.691406 0.71875 -7.171875 C 0.71875 -8.660156 1.03125 -9.960938 1.65625 -11.078125 C 2.28125 -12.203125 3.125 -13.066406 4.1875 -13.671875 C 5.257812 -14.285156 6.453125 -14.59375 7.765625 -14.59375 C 9.648438 -14.59375 11.0625 -14.035156 12 -12.921875 L 12 -14.359375 Z M 8.8125 -3.765625 C 9.695312 -3.765625 10.421875 -4.066406 10.984375 -4.671875 C 11.554688 -5.285156 11.84375 -6.117188 11.84375 -7.171875 C 11.84375 -8.234375 11.554688 -9.066406 10.984375 -9.671875 C 10.421875 -10.285156 9.695312 -10.59375 8.8125 -10.59375 C 7.9375 -10.59375 7.210938 -10.285156 6.640625 -9.671875 C 6.078125 -9.066406 5.796875 -8.234375 5.796875 -7.171875 C 5.796875 -6.117188 6.078125 -5.285156 6.640625 -4.671875 C 7.210938 -4.066406 7.9375 -3.765625 8.8125 -3.765625 Z M 8.8125 -3.765625 "/></g></g></g><g fill="#603fff" fill-opacity="1"><g transform="translate(63.810655, 27.616432)"><g><path d="M 16.71875 -14.359375 L 16.71875 0 L 11.921875 0 L 11.921875 -1.53125 C 11.390625 -0.945312 10.753906 -0.503906 10.015625 -0.203125 C 9.273438 0.0859375 8.488281 0.234375 7.65625 0.234375 C 5.800781 0.234375 4.320312 -0.3125 3.21875 -1.40625 C 2.113281 -2.5 1.5625 -4.140625 1.5625 -6.328125 L 1.5625 -14.359375 L 6.59375 -14.359375 L 6.59375 -7.15625 C 6.59375 -6.070312 6.796875 -5.28125 7.203125 -4.78125 C 7.609375 -4.289062 8.203125 -4.046875 8.984375 -4.046875 C 9.773438 -4.046875 10.421875 -4.320312 10.921875 -4.875 C 11.421875 -5.4375 11.671875 -6.289062 11.671875 -7.4375 L 11.671875 -14.359375 Z M 16.71875 -14.359375 "/></g></g></g><g fill="#603fff" fill-opacity="1"><g transform="translate(80.807937, 27.616432)"><g><path d="M 1.609375 -14.359375 L 6.640625 -14.359375 L 6.640625 0 L 1.609375 0 Z M 4.125 -15.9375 C 3.207031 -15.9375 2.46875 -16.191406 1.90625 -16.703125 C 1.34375 -17.222656 1.0625 -17.863281 1.0625 -18.625 C 1.0625 -19.375 1.34375 -20.003906 1.90625 -20.515625 C 2.46875 -21.035156 3.207031 -21.296875 4.125 -21.296875 C 5.050781 -21.296875 5.796875 -21.050781 6.359375 -20.5625 C 6.921875 -20.082031 7.203125 -19.460938 7.203125 -18.703125 C 7.203125 -17.898438 6.921875 -17.238281 6.359375 -16.71875 C 5.796875 -16.195312 5.050781 -15.9375 4.125 -15.9375 Z M 4.125 -15.9375 "/></g></g></g><g fill="#603fff" fill-opacity="1"><g transform="translate(87.770868, 27.616432)"><g><path d="M 8.953125 0.234375 C 7.359375 0.234375 5.9375 -0.0820312 4.6875 -0.71875 C 3.4375 -1.351562 2.460938 -2.234375 1.765625 -3.359375 C 1.066406 -4.492188 0.71875 -5.773438 0.71875 -7.203125 C 0.71875 -8.628906 1.066406 -9.90625 1.765625 -11.03125 C 2.460938 -12.15625 3.4375 -13.03125 4.6875 -13.65625 C 5.9375 -14.28125 7.359375 -14.59375 8.953125 -14.59375 C 10.578125 -14.59375 11.976562 -14.242188 13.15625 -13.546875 C 14.34375 -12.847656 15.179688 -11.878906 15.671875 -10.640625 L 11.78125 -8.65625 C 11.132812 -9.945312 10.179688 -10.59375 8.921875 -10.59375 C 8.023438 -10.59375 7.28125 -10.289062 6.6875 -9.6875 C 6.09375 -9.09375 5.796875 -8.265625 5.796875 -7.203125 C 5.796875 -6.128906 6.09375 -5.285156 6.6875 -4.671875 C 7.28125 -4.066406 8.023438 -3.765625 8.921875 -3.765625 C 10.179688 -3.765625 11.132812 -4.40625 11.78125 -5.6875 L 15.671875 -3.703125 C 15.179688 -2.472656 14.34375 -1.507812 13.15625 -0.8125 C 11.976562 -0.113281 10.578125 0.234375 8.953125 0.234375 Z M 8.953125 0.234375 "/></g></g></g><g fill="#603fff" fill-opacity="1"><g transform="translate(102.411805, 27.616432)"><g><path d="M 8.125 -5.03125 L 6.640625 -3.515625 L 6.640625 0 L 1.609375 0 L 1.609375 -19.65625 L 6.640625 -19.65625 L 6.640625 -9.34375 L 11.78125 -14.359375 L 17.75 -14.359375 L 11.78125 -8.203125 L 18.25 0 L 12.15625 0 Z M 8.125 -5.03125 "/></g></g></g><g fill="#603fff" fill-opacity="1"><g transform="translate(119.250232, 27.616432)"><g><path d="M 8.953125 0.234375 C 7.359375 0.234375 5.9375 -0.0820312 4.6875 -0.71875 C 3.4375 -1.351562 2.460938 -2.234375 1.765625 -3.359375 C 1.066406 -4.492188 0.71875 -5.773438 0.71875 -7.203125 C 0.71875 -8.628906 1.066406 -9.90625 1.765625 -11.03125 C 2.460938 -12.15625 3.4375 -13.03125 4.6875 -13.65625 C 5.9375 -14.28125 7.359375 -14.59375 8.953125 -14.59375 C 10.578125 -14.59375 11.976562 -14.242188 13.15625 -13.546875 C 14.34375 -12.847656 15.179688 -11.878906 15.671875 -10.640625 L 11.78125 -8.65625 C 11.132812 -9.945312 10.179688 -10.59375 8.921875 -10.59375 C 8.023438 -10.59375 7.28125 -10.289062 6.6875 -9.6875 C 6.09375 -9.09375 5.796875 -8.265625 5.796875 -7.203125 C 5.796875 -6.128906 6.09375 -5.285156 6.6875 -4.671875 C 7.28125 -4.066406 8.023438 -3.765625 8.921875 -3.765625 C 10.179688 -3.765625 11.132812 -4.40625 11.78125 -5.6875 L 15.671875 -3.703125 C 15.179688 -2.472656 14.34375 -1.507812 13.15625 -0.8125 C 11.976562 -0.113281 10.578125 0.234375 8.953125 0.234375 Z M 8.953125 0.234375 "/></g></g></g><g fill="#603fff" fill-opacity="1"><g transform="translate(133.891166, 27.616432)"><g><path d="M 8.8125 0.234375 C 7.28125 0.234375 5.894531 -0.0820312 4.65625 -0.71875 C 3.425781 -1.351562 2.460938 -2.234375 1.765625 -3.359375 C 1.066406 -4.492188 0.71875 -5.773438 0.71875 -7.203125 C 0.71875 -8.617188 1.066406 -9.890625 1.765625 -11.015625 C 2.460938 -12.148438 3.421875 -13.03125 4.640625 -13.65625 C 5.867188 -14.28125 7.257812 -14.59375 8.8125 -14.59375 C 10.375 -14.59375 11.769531 -14.28125 13 -13.65625 C 14.238281 -13.03125 15.203125 -12.15625 15.890625 -11.03125 C 16.578125 -9.90625 16.921875 -8.628906 16.921875 -7.203125 C 16.921875 -5.773438 16.578125 -4.492188 15.890625 -3.359375 C 15.203125 -2.234375 14.238281 -1.351562 13 -0.71875 C 11.769531 -0.0820312 10.375 0.234375 8.8125 0.234375 Z M 8.8125 -3.765625 C 9.695312 -3.765625 10.421875 -4.066406 10.984375 -4.671875 C 11.554688 -5.285156 11.84375 -6.128906 11.84375 -7.203125 C 11.84375 -8.265625 11.554688 -9.09375 10.984375 -9.6875 C 10.421875 -10.289062 9.695312 -10.59375 8.8125 -10.59375 C 7.9375 -10.59375 7.210938 -10.289062 6.640625 -9.6875 C 6.078125 -9.09375 5.796875 -8.265625 5.796875 -7.203125 C 5.796875 -6.128906 6.078125 -5.285156 6.640625 -4.671875 C 7.210938 -4.066406 7.9375 -3.765625 8.8125 -3.765625 Z M 8.8125 -3.765625 "/></g></g></g><g fill="#603fff" fill-opacity="1"><g transform="translate(150.200075, 27.616432)"><g><path d="M 16.875 -19.65625 L 16.875 0 L 12.078125 0 L 12.078125 -1.4375 C 11.140625 -0.320312 9.734375 0.234375 7.859375 0.234375 C 6.554688 0.234375 5.363281 -0.0664062 4.28125 -0.671875 C 3.207031 -1.285156 2.359375 -2.15625 1.734375 -3.28125 C 1.109375 -4.414062 0.796875 -5.722656 0.796875 -7.203125 C 0.796875 -8.679688 1.109375 -9.984375 1.734375 -11.109375 C 2.359375 -12.234375 3.207031 -13.09375 4.28125 -13.6875 C 5.363281 -14.289062 6.554688 -14.59375 7.859375 -14.59375 C 9.578125 -14.59375 10.90625 -14.097656 11.84375 -13.109375 L 11.84375 -19.65625 Z M 8.921875 -3.765625 C 9.785156 -3.765625 10.5 -4.066406 11.0625 -4.671875 C 11.632812 -5.285156 11.921875 -6.128906 11.921875 -7.203125 C 11.921875 -8.265625 11.640625 -9.09375 11.078125 -9.6875 C 10.523438 -10.289062 9.804688 -10.59375 8.921875 -10.59375 C 8.035156 -10.59375 7.3125 -10.289062 6.75 -9.6875 C 6.1875 -9.09375 5.90625 -8.265625 5.90625 -7.203125 C 5.90625 -6.128906 6.1875 -5.285156 6.75 -4.671875 C 7.3125 -4.066406 8.035156 -3.765625 8.921875 -3.765625 Z M 8.921875 -3.765625 "/></g></g></g><g fill="#603fff" fill-opacity="1"><g transform="translate(167.356214, 27.616432)"><g><path d="M 16.28125 -7.15625 C 16.28125 -7.113281 16.253906 -6.695312 16.203125 -5.90625 L 5.78125 -5.90625 C 5.988281 -5.164062 6.394531 -4.597656 7 -4.203125 C 7.613281 -3.804688 8.378906 -3.609375 9.296875 -3.609375 C 9.984375 -3.609375 10.578125 -3.703125 11.078125 -3.890625 C 11.585938 -4.085938 12.097656 -4.40625 12.609375 -4.84375 L 15.25 -2.09375 C 13.851562 -0.539062 11.816406 0.234375 9.140625 0.234375 C 7.460938 0.234375 5.988281 -0.0820312 4.71875 -0.71875 C 3.445312 -1.351562 2.460938 -2.234375 1.765625 -3.359375 C 1.066406 -4.492188 0.71875 -5.773438 0.71875 -7.203125 C 0.71875 -8.617188 1.054688 -9.882812 1.734375 -11 C 2.410156 -12.125 3.347656 -13.003906 4.546875 -13.640625 C 5.753906 -14.273438 7.109375 -14.59375 8.609375 -14.59375 C 10.035156 -14.59375 11.332031 -14.296875 12.5 -13.703125 C 13.664062 -13.109375 14.585938 -12.25 15.265625 -11.125 C 15.941406 -10.007812 16.28125 -8.6875 16.28125 -7.15625 Z M 8.640625 -11.015625 C 7.859375 -11.015625 7.207031 -10.789062 6.6875 -10.34375 C 6.164062 -9.90625 5.832031 -9.304688 5.6875 -8.546875 L 11.578125 -8.546875 C 11.429688 -9.304688 11.097656 -9.90625 10.578125 -10.34375 C 10.054688 -10.789062 9.410156 -11.015625 8.640625 -11.015625 Z M 8.640625 -11.015625 "/></g></g></g><g clip-path="url(#95e51af406)"><path fill="#fbbf24" d="M 30.75 33.300781 L 14.371094 33.300781 C 10.761719 33.300781 7.835938 30.371094 7.835938 26.789062 L 7.835938 16.167969 C 7.835938 12.5625 10.761719 9.632812 14.371094 9.632812 L 21.855469 9.632812 L 21.878906 7.140625 C 20.90625 6.84375 20.179688 5.9375 20.179688 4.847656 C 20.179688 3.53125 21.265625 2.464844 22.582031 2.464844 C 23.898438 2.464844 24.988281 3.53125 24.988281 4.847656 C 24.988281 5.9375 24.238281 6.867188 23.242188 7.160156 L 23.21875 9.632812 L 30.75 9.632812 C 34.335938 9.632812 37.261719 12.5625 37.261719 16.167969 L 37.261719 26.808594 C 37.261719 30.394531 34.335938 33.300781 30.75 33.300781 Z M 16.410156 23 C 14.484375 23 12.964844 21.476562 12.964844 19.570312 C 12.964844 17.644531 14.484375 16.125 16.410156 16.125 C 18.339844 16.125 19.839844 17.644531 19.839844 19.570312 C 19.839844 21.476562 18.339844 23 16.410156 23 Z M 16.410156 17.484375 C 15.230469 17.484375 14.324219 18.390625 14.324219 19.570312 C 14.324219 20.730469 15.230469 21.636719 16.410156 21.636719 C 17.570312 21.636719 18.5 20.730469 18.5 19.570312 C 18.5 18.390625 17.570312 17.484375 16.410156 17.484375 Z M 28.730469 22.863281 C 26.804688 22.863281 25.261719 21.320312 25.261719 19.414062 C 25.261719 17.507812 26.804688 15.964844 28.730469 15.964844 C 30.617188 15.964844 32.15625 17.507812 32.15625 19.414062 C 32.15625 21.320312 30.617188 22.863281 28.730469 22.863281 Z M 28.730469 17.324219 C 27.550781 17.324219 26.621094 18.277344 26.621094 19.414062 C 26.621094 20.570312 27.550781 21.523438 28.730469 21.523438 C 29.890625 21.523438 30.796875 20.570312 30.796875 19.414062 C 30.796875 18.234375 29.867188 17.324219 28.730469 17.324219 Z M 22.3125 26.992188 C 21.019531 26.992188 19.882812 26.378906 19.25 25.835938 C 18.953125 25.585938 18.929688 25.132812 19.179688 24.882812 C 19.429688 24.609375 19.839844 24.5625 20.132812 24.835938 C 20.335938 25.015625 22.3125 26.582031 24.195312 24.859375 C 24.464844 24.609375 24.875 24.609375 25.171875 24.882812 C 25.417969 25.175781 25.417969 25.585938 25.148438 25.855469 C 24.195312 26.671875 23.21875 26.992188 22.3125 26.992188 Z M 22.3125 26.992188 " fill-opacity="1" fill-rule="evenodd"/></g><g clip-path="url(#d1c81372a0)"><path fill="#fbbf24" d="M 6.472656 26.015625 L 6.203125 26.015625 C 4.570312 26.015625 3.207031 24.675781 3.207031 23.019531 L 3.207031 18.390625 C 3.207031 16.734375 4.570312 15.375 6.203125 15.375 L 6.519531 15.375 C 6.496094 15.625 6.472656 15.898438 6.472656 16.167969 Z M 6.472656 26.015625 " fill-opacity="1" fill-rule="evenodd"/></g><g clip-path="url(#38e497d154)"><path fill="#fbbf24" d="M 38.898438 26.015625 L 38.625 26.015625 L 38.625 16.167969 C 38.625 15.875 38.601562 15.601562 38.578125 15.351562 L 38.898438 15.351562 C 40.574219 15.351562 41.9375 16.691406 41.9375 18.371094 L 41.9375 23.019531 C 41.9375 24.699219 40.574219 26.015625 38.898438 26.015625 Z M 38.898438 26.015625 " fill-opacity="1" fill-rule="evenodd"/></g></svg>