<svg width="1279" height="1012" viewBox="0 0 1279 1012" fill="none" xmlns="http://www.w3.org/2000/svg">
<g opacity="0.22" filter="url(#filter0_f_14786_459)">
<path d="M507.469 651.891C543.557 551.987 519.058 451.582 452.749 427.629C386.44 403.676 303.431 465.247 267.343 565.151C231.255 665.054 255.754 765.459 322.063 789.412C388.372 813.365 471.381 751.794 507.469 651.891Z" fill="#EF4444"/>
<path d="M753.615 500.419C797.723 424.858 766.347 324.416 683.536 276.076C600.725 227.736 497.837 249.803 453.729 325.364C409.621 400.925 440.997 501.367 523.808 549.707C606.62 598.047 709.508 575.979 753.615 500.419Z" fill="#D946EF"/>
<path d="M994.372 593.944C1059.43 482.493 1029.28 343.759 927.029 284.072C824.779 224.385 689.15 266.348 624.092 377.799C559.035 489.249 589.185 627.983 691.435 687.67C793.685 747.357 929.314 705.394 994.372 593.944Z" fill="#6366F1"/>
<path d="M762.906 817.479C784.547 709.873 741.116 610.377 665.899 595.249C590.682 580.122 512.163 655.091 490.522 762.698C468.88 870.305 512.311 969.8 587.528 984.928C662.745 1000.06 741.264 925.086 762.906 817.479Z" fill="#F59E0B"/>
</g>
<defs>
<filter id="filter0_f_14786_459" x="0.6875" y="0.454102" width="1278.01" height="1236.41" filterUnits="userSpaceOnUse" color-interpolation-filters="sRGB">
<feFlood flood-opacity="0" result="BackgroundImageFix"/>
<feBlend mode="normal" in="SourceGraphic" in2="BackgroundImageFix" result="shape"/>
<feGaussianBlur stdDeviation="125" result="effect1_foregroundBlur_14786_459"/>
</filter>
</defs>
</svg>
