<svg width="558" height="670" viewBox="0 0 558 670" fill="none" xmlns="http://www.w3.org/2000/svg">
<g opacity="0.5" filter="url(#filter0_f_10792_3013)">
<path d="M187.275 381.25C209.4 301.214 194.38 220.777 153.728 201.587C113.076 182.398 62.1849 231.724 40.0602 311.76C17.9356 391.796 32.9552 472.234 73.6076 491.423C114.26 510.612 165.151 461.286 187.275 381.25Z" fill="#EF4444"/>
<path d="M338.183 259.901C365.224 199.367 345.988 118.9 295.219 80.1734C244.449 41.4468 181.371 59.1255 154.33 119.66C127.288 180.194 146.524 260.661 197.294 299.387C248.063 338.114 311.142 320.435 338.183 259.901Z" fill="#D946EF"/>
<path d="M485.782 334.828C525.667 245.542 507.183 134.397 444.496 86.5805C381.809 38.7635 298.658 72.3811 258.772 161.668C218.887 250.954 237.372 362.098 300.059 409.915C362.746 457.732 445.897 424.115 485.782 334.828Z" fill="#6366F1"/>
<path d="M343.877 513.908C357.145 427.701 330.518 347.992 284.405 335.873C238.291 323.753 190.153 383.814 176.885 470.021C163.617 556.228 190.244 635.937 236.357 648.056C282.471 660.175 330.609 600.115 343.877 513.908Z" fill="#F59E0B"/>
</g>
<defs>
<filter id="filter0_f_10792_3013" x="-220.15" y="-190.354" width="976.977" height="1089.96" filterUnits="userSpaceOnUse" color-interpolation-filters="sRGB">
<feFlood flood-opacity="0" result="BackgroundImageFix"/>
<feBlend mode="normal" in="SourceGraphic" in2="BackgroundImageFix" result="shape"/>
<feGaussianBlur stdDeviation="125" result="effect1_foregroundBlur_10792_3013"/>
</filter>
</defs>
</svg>
