<svg xmlns="http://www.w3.org/2000/svg" xmlns:xlink="http://www.w3.org/1999/xlink" width="256" zoomAndPan="magnify" viewBox="0 0 192 191.999996" height="256" preserveAspectRatio="xMidYMid meet" version="1.0"><defs><g/><clipPath id="f66be0efd3"><path d="M 4.664062 76 L 97 76 L 97 157.578125 L 4.664062 157.578125 Z M 4.664062 76 " clip-rule="nonzero"/></clipPath><clipPath id="f70c5114f1"><path d="M 96 34.578125 L 187.664062 34.578125 L 187.664062 116 L 96 116 Z M 96 34.578125 " clip-rule="nonzero"/></clipPath></defs><g clip-path="url(#f66be0efd3)"><path fill="#fbbf24" d="M 66.171875 133.882812 L 66.171875 145 L 15.820312 121.605469 L 15.820312 112.585938 L 66.171875 89.191406 L 66.171875 100.3125 L 28.09375 116.992188 L 28.09375 117.199219 Z M 96.074219 76.839844 L 11.871094 76.839844 C 7.894531 76.839844 4.671875 80.0625 4.671875 84.039062 L 4.671875 150.15625 C 4.671875 154.128906 7.894531 157.355469 11.871094 157.355469 L 72.699219 157.355469 L 96.074219 76.839844 " fill-opacity="1" fill-rule="nonzero"/></g><g clip-path="url(#f70c5114f1)"><path fill="#fbbf24" d="M 176.191406 79.699219 L 125.839844 102.777344 L 125.839844 91.65625 L 164.757812 74.976562 L 164.757812 74.769531 L 125.839844 58.089844 L 125.839844 46.96875 L 176.191406 70.046875 Z M 119.449219 34.617188 L 96.074219 115.132812 L 180.140625 115.132812 C 184.113281 115.132812 187.335938 111.910156 187.335938 107.929688 L 187.335938 41.8125 C 187.335938 37.839844 184.113281 34.617188 180.140625 34.617188 L 119.449219 34.617188 " fill-opacity="1" fill-rule="nonzero"/></g><g fill="#ffffff" fill-opacity="1"><g transform="translate(22.903602, 26.324999)"><g><path d="M 2.75 0.09375 C 2.40625 0.09375 2.101562 0.0234375 1.84375 -0.109375 C 1.582031 -0.253906 1.378906 -0.453125 1.234375 -0.703125 C 1.097656 -0.953125 1.03125 -1.234375 1.03125 -1.546875 C 1.03125 -1.859375 1.097656 -2.132812 1.234375 -2.375 C 1.378906 -2.625 1.582031 -2.820312 1.84375 -2.96875 C 2.101562 -3.113281 2.40625 -3.1875 2.75 -3.1875 C 3.101562 -3.1875 3.410156 -3.113281 3.671875 -2.96875 C 3.941406 -2.832031 4.144531 -2.640625 4.28125 -2.390625 C 4.425781 -2.140625 4.5 -1.859375 4.5 -1.546875 C 4.5 -1.078125 4.335938 -0.6875 4.015625 -0.375 C 3.703125 -0.0625 3.28125 0.09375 2.75 0.09375 Z M 2.75 0.09375 "/></g></g></g></svg>