<svg xmlns="http://www.w3.org/2000/svg" xmlns:xlink="http://www.w3.org/1999/xlink" width="1475" zoomAndPan="magnify" viewBox="0 0 1106.25 206.249992" height="275" preserveAspectRatio="xMidYMid meet" version="1.0"><defs><g/></defs><g fill="#a6a6a6" fill-opacity="1"><g transform="translate(2.818519, 179.128575)"><g><path d="M 70.25 -50.078125 L 94.703125 -50.078125 L 109.1875 -31.296875 L 119.53125 -19.078125 L 144.34375 12.8125 L 118.140625 12.8125 L 101.25 -8.59375 L 94.046875 -18.78125 Z M 147.921875 -74.546875 C 147.921875 -58.484375 144.921875 -44.734375 138.921875 -33.296875 C 132.929688 -21.867188 124.78125 -13.125 114.46875 -7.0625 C 104.15625 -1 92.472656 2.03125 79.421875 2.03125 C 66.359375 2.03125 54.671875 -1.007812 44.359375 -7.09375 C 34.054688 -13.1875 25.90625 -21.945312 19.90625 -33.375 C 13.914062 -44.800781 10.921875 -58.523438 10.921875 -74.546875 C 10.921875 -90.609375 13.914062 -104.351562 19.90625 -115.78125 C 25.90625 -127.207031 34.054688 -135.953125 44.359375 -142.015625 C 54.671875 -148.085938 66.359375 -151.125 79.421875 -151.125 C 92.472656 -151.125 104.15625 -148.085938 114.46875 -142.015625 C 124.78125 -135.953125 132.929688 -127.207031 138.921875 -115.78125 C 144.921875 -104.351562 147.921875 -90.609375 147.921875 -74.546875 Z M 120.765625 -74.546875 C 120.765625 -85.847656 119.003906 -95.390625 115.484375 -103.171875 C 111.960938 -110.960938 107.097656 -116.859375 100.890625 -120.859375 C 94.679688 -124.867188 87.523438 -126.875 79.421875 -126.875 C 71.316406 -126.875 64.15625 -124.867188 57.9375 -120.859375 C 51.726562 -116.859375 46.863281 -110.960938 43.34375 -103.171875 C 39.832031 -95.390625 38.078125 -85.847656 38.078125 -74.546875 C 38.078125 -63.234375 39.832031 -53.679688 43.34375 -45.890625 C 46.863281 -38.109375 51.726562 -32.210938 57.9375 -28.203125 C 64.15625 -24.203125 71.316406 -22.203125 79.421875 -22.203125 C 87.523438 -22.203125 94.679688 -24.203125 100.890625 -28.203125 C 107.097656 -32.210938 111.960938 -38.109375 115.484375 -45.890625 C 119.003906 -53.679688 120.765625 -63.234375 120.765625 -74.546875 Z M 120.765625 -74.546875 "/></g></g></g><g fill="#a6a6a6" fill-opacity="1"><g transform="translate(161.799839, 179.128575)"><g><path d="M 84.796875 -47.03125 L 84.796875 -111.8125 L 111.15625 -111.8125 L 111.15625 0 L 85.609375 0 L 85.609375 -19.875 L 84.4375 -19.875 C 81.914062 -13.613281 77.78125 -8.492188 72.03125 -4.515625 C 66.28125 -0.535156 59.207031 1.453125 50.8125 1.453125 C 43.476562 1.453125 37.007812 -0.179688 31.40625 -3.453125 C 25.800781 -6.734375 21.421875 -11.515625 18.265625 -17.796875 C 15.117188 -24.078125 13.546875 -31.6875 13.546875 -40.625 L 13.546875 -111.8125 L 39.890625 -111.8125 L 39.890625 -44.6875 C 39.890625 -37.601562 41.828125 -31.972656 45.703125 -27.796875 C 49.585938 -23.628906 54.6875 -21.546875 61 -21.546875 C 64.882812 -21.546875 68.644531 -22.488281 72.28125 -24.375 C 75.925781 -26.269531 78.921875 -29.097656 81.265625 -32.859375 C 83.617188 -36.617188 84.796875 -41.34375 84.796875 -47.03125 Z M 84.796875 -47.03125 "/></g></g></g><g fill="#a6a6a6" fill-opacity="1"><g transform="translate(286.495329, 179.128575)"><g><path d="M 13.546875 0 L 13.546875 -111.8125 L 39.890625 -111.8125 L 39.890625 0 Z M 26.78125 -127.671875 C 22.613281 -127.671875 19.023438 -129.066406 16.015625 -131.859375 C 13.003906 -134.648438 11.5 -138.015625 11.5 -141.953125 C 11.5 -145.929688 13.003906 -149.3125 16.015625 -152.09375 C 19.023438 -154.882812 22.613281 -156.28125 26.78125 -156.28125 C 31.007812 -156.28125 34.613281 -154.882812 37.59375 -152.09375 C 40.582031 -149.3125 42.078125 -145.929688 42.078125 -141.953125 C 42.078125 -138.015625 40.582031 -134.648438 37.59375 -131.859375 C 34.613281 -129.066406 31.007812 -127.671875 26.78125 -127.671875 Z M 26.78125 -127.671875 "/></g></g></g><g fill="#a6a6a6" fill-opacity="1"><g transform="translate(339.925871, 179.128575)"><g><path d="M 62.3125 2.1875 C 51.144531 2.1875 41.570312 -0.257812 33.59375 -5.15625 C 25.613281 -10.0625 19.472656 -16.84375 15.171875 -25.5 C 10.878906 -34.164062 8.734375 -44.15625 8.734375 -55.46875 C 8.734375 -66.820312 10.914062 -76.851562 15.28125 -85.5625 C 19.65625 -94.28125 25.832031 -101.078125 33.8125 -105.953125 C 41.789062 -110.828125 51.242188 -113.265625 62.171875 -113.265625 C 71.242188 -113.265625 79.285156 -111.601562 86.296875 -108.28125 C 93.304688 -104.957031 98.894531 -100.273438 103.0625 -94.234375 C 107.238281 -88.191406 109.617188 -81.140625 110.203125 -73.078125 L 85.015625 -73.078125 C 84.003906 -78.460938 81.59375 -82.960938 77.78125 -86.578125 C 73.96875 -90.203125 68.882812 -92.015625 62.53125 -92.015625 C 57.144531 -92.015625 52.410156 -90.566406 48.328125 -87.671875 C 44.253906 -84.785156 41.085938 -80.648438 38.828125 -75.265625 C 36.578125 -69.878906 35.453125 -63.425781 35.453125 -55.90625 C 35.453125 -48.28125 36.566406 -41.738281 38.796875 -36.28125 C 41.023438 -30.820312 44.164062 -26.625 48.21875 -23.6875 C 52.269531 -20.757812 57.039062 -19.296875 62.53125 -19.296875 C 66.414062 -19.296875 69.894531 -20.035156 72.96875 -21.515625 C 76.050781 -22.992188 78.632812 -25.140625 80.71875 -27.953125 C 82.8125 -30.765625 84.242188 -34.1875 85.015625 -38.21875 L 110.203125 -38.21875 C 109.578125 -30.300781 107.25 -23.296875 103.21875 -17.203125 C 99.1875 -11.117188 93.703125 -6.363281 86.765625 -2.9375 C 79.828125 0.476562 71.675781 2.1875 62.3125 2.1875 Z M 62.3125 2.1875 "/></g></g></g><g fill="#a6a6a6" fill-opacity="1"><g transform="translate(458.28833, 179.128575)"><g><path d="M 37.5625 -35.09375 L 37.484375 -66.890625 L 41.703125 -66.890625 L 81.890625 -111.8125 L 112.6875 -111.8125 L 63.25 -56.78125 L 57.796875 -56.78125 Z M 13.546875 0 L 13.546875 -149.078125 L 39.890625 -149.078125 L 39.890625 0 Z M 83.71875 0 L 47.3125 -50.875 L 65.078125 -69.4375 L 115.234375 0 Z M 83.71875 0 "/></g></g></g><g fill="#a6a6a6" fill-opacity="1"><g transform="translate(574.903723, 179.128575)"><g><path d="M 142.3125 -98.78125 L 115.078125 -98.78125 C 114.304688 -103.25 112.875 -107.21875 110.78125 -110.6875 C 108.695312 -114.15625 106.101562 -117.101562 103 -119.53125 C 99.894531 -121.957031 96.363281 -123.785156 92.40625 -125.015625 C 88.457031 -126.253906 84.203125 -126.875 79.640625 -126.875 C 71.535156 -126.875 64.351562 -124.847656 58.09375 -120.796875 C 51.832031 -116.742188 46.929688 -110.820312 43.390625 -103.03125 C 39.847656 -95.25 38.078125 -85.753906 38.078125 -74.546875 C 38.078125 -63.140625 39.859375 -53.539062 43.421875 -45.75 C 46.984375 -37.957031 51.882812 -32.082031 58.125 -28.125 C 64.363281 -24.175781 71.507812 -22.203125 79.5625 -22.203125 C 84.03125 -22.203125 88.21875 -22.796875 92.125 -23.984375 C 96.03125 -25.171875 99.546875 -26.925781 102.671875 -29.25 C 105.804688 -31.582031 108.453125 -34.445312 110.609375 -37.84375 C 112.765625 -41.25 114.253906 -45.132812 115.078125 -49.5 L 142.3125 -49.359375 C 141.289062 -42.265625 139.09375 -35.613281 135.71875 -29.40625 C 132.34375 -23.195312 127.9375 -17.722656 122.5 -12.984375 C 117.070312 -8.253906 110.71875 -4.566406 103.4375 -1.921875 C 96.15625 0.710938 88.078125 2.03125 79.203125 2.03125 C 66.097656 2.03125 54.398438 -1 44.109375 -7.0625 C 33.828125 -13.125 25.722656 -21.878906 19.796875 -33.328125 C 13.878906 -44.785156 10.921875 -58.523438 10.921875 -74.546875 C 10.921875 -90.609375 13.90625 -104.351562 19.875 -115.78125 C 25.84375 -127.207031 33.96875 -135.953125 44.25 -142.015625 C 54.539062 -148.085938 66.191406 -151.125 79.203125 -151.125 C 87.492188 -151.125 95.207031 -149.957031 102.34375 -147.625 C 109.476562 -145.289062 115.835938 -141.878906 121.421875 -137.390625 C 127.003906 -132.898438 131.601562 -127.414062 135.21875 -120.9375 C 138.832031 -114.46875 141.195312 -107.082031 142.3125 -98.78125 Z M 142.3125 -98.78125 "/></g></g></g><g fill="#a6a6a6" fill-opacity="1"><g transform="translate(727.333581, 179.128575)"><g><path d="M 62.3125 2.1875 C 51.394531 2.1875 41.929688 -0.210938 33.921875 -5.015625 C 25.910156 -9.828125 19.707031 -16.550781 15.3125 -25.1875 C 10.925781 -33.820312 8.734375 -43.914062 8.734375 -55.46875 C 8.734375 -67.019531 10.925781 -77.140625 15.3125 -85.828125 C 19.707031 -94.515625 25.910156 -101.257812 33.921875 -106.0625 C 41.929688 -110.863281 51.394531 -113.265625 62.3125 -113.265625 C 73.226562 -113.265625 82.6875 -110.863281 90.6875 -106.0625 C 98.695312 -101.257812 104.898438 -94.515625 109.296875 -85.828125 C 113.691406 -77.140625 115.890625 -67.019531 115.890625 -55.46875 C 115.890625 -43.914062 113.691406 -33.820312 109.296875 -25.1875 C 104.898438 -16.550781 98.695312 -9.828125 90.6875 -5.015625 C 82.6875 -0.210938 73.226562 2.1875 62.3125 2.1875 Z M 62.453125 -18.921875 C 68.378906 -18.921875 73.332031 -20.554688 77.3125 -23.828125 C 81.289062 -27.109375 84.257812 -31.515625 86.21875 -37.046875 C 88.1875 -42.578125 89.171875 -48.742188 89.171875 -55.546875 C 89.171875 -62.378906 88.1875 -68.570312 86.21875 -74.125 C 84.257812 -79.6875 81.289062 -84.117188 77.3125 -87.421875 C 73.332031 -90.722656 68.378906 -92.375 62.453125 -92.375 C 56.390625 -92.375 51.351562 -90.722656 47.34375 -87.421875 C 43.34375 -84.117188 40.359375 -79.6875 38.390625 -74.125 C 36.429688 -68.570312 35.453125 -62.378906 35.453125 -55.546875 C 35.453125 -48.742188 36.429688 -42.578125 38.390625 -37.046875 C 40.359375 -31.515625 43.34375 -27.109375 47.34375 -23.828125 C 51.351562 -20.554688 56.390625 -18.921875 62.453125 -18.921875 Z M 62.453125 -18.921875 "/></g></g></g><g fill="#a6a6a6" fill-opacity="1"><g transform="translate(851.956264, 179.128575)"><g><path d="M 55.03125 1.96875 C 46.25 1.96875 38.382812 -0.285156 31.4375 -4.796875 C 24.5 -9.316406 19.015625 -15.867188 14.984375 -24.453125 C 10.960938 -33.046875 8.953125 -43.484375 8.953125 -55.765625 C 8.953125 -68.179688 11 -78.671875 15.09375 -87.234375 C 19.195312 -95.804688 24.742188 -102.285156 31.734375 -106.671875 C 38.722656 -111.066406 46.515625 -113.265625 55.109375 -113.265625 C 61.660156 -113.265625 67.046875 -112.160156 71.265625 -109.953125 C 75.484375 -107.742188 78.828125 -105.097656 81.296875 -102.015625 C 83.773438 -98.929688 85.695312 -96.035156 87.0625 -93.328125 L 88.15625 -93.328125 L 88.15625 -149.078125 L 114.578125 -149.078125 L 114.578125 0 L 88.65625 0 L 88.65625 -17.609375 L 87.0625 -17.609375 C 85.695312 -14.898438 83.726562 -12.023438 81.15625 -8.984375 C 78.59375 -5.953125 75.195312 -3.367188 70.96875 -1.234375 C 66.75 0.898438 61.4375 1.96875 55.03125 1.96875 Z M 62.390625 -19.65625 C 67.960938 -19.65625 72.710938 -21.171875 76.640625 -24.203125 C 80.578125 -27.234375 83.5625 -31.46875 85.59375 -36.90625 C 87.632812 -42.34375 88.65625 -48.675781 88.65625 -55.90625 C 88.65625 -63.132812 87.648438 -69.414062 85.640625 -74.75 C 83.628906 -80.09375 80.671875 -84.242188 76.765625 -87.203125 C 72.859375 -90.160156 68.066406 -91.640625 62.390625 -91.640625 C 56.515625 -91.640625 51.609375 -90.109375 47.671875 -87.046875 C 43.742188 -83.992188 40.785156 -79.773438 38.796875 -74.390625 C 36.804688 -69.003906 35.8125 -62.84375 35.8125 -55.90625 C 35.8125 -48.914062 36.816406 -42.691406 38.828125 -37.234375 C 40.847656 -31.773438 43.832031 -27.476562 47.78125 -24.34375 C 51.738281 -21.21875 56.609375 -19.65625 62.390625 -19.65625 Z M 62.390625 -19.65625 "/></g></g></g><g fill="#a6a6a6" fill-opacity="1"><g transform="translate(981.164996, 179.128575)"><g><path d="M 63.03125 2.1875 C 51.820312 2.1875 42.15625 -0.148438 34.03125 -4.828125 C 25.90625 -9.515625 19.65625 -16.164062 15.28125 -24.78125 C 10.914062 -33.394531 8.734375 -43.550781 8.734375 -55.25 C 8.734375 -66.75 10.925781 -76.851562 15.3125 -85.5625 C 19.707031 -94.28125 25.859375 -101.078125 33.765625 -105.953125 C 41.679688 -110.828125 50.976562 -113.265625 61.65625 -113.265625 C 68.539062 -113.265625 75.050781 -112.160156 81.1875 -109.953125 C 87.332031 -107.742188 92.769531 -104.332031 97.5 -99.71875 C 102.238281 -95.113281 105.960938 -89.253906 108.671875 -82.140625 C 111.390625 -75.035156 112.75 -66.582031 112.75 -56.78125 L 112.75 -48.703125 L 21.109375 -48.703125 L 21.109375 -66.453125 L 87.5 -66.453125 C 87.445312 -71.503906 86.351562 -76.003906 84.21875 -79.953125 C 82.082031 -83.910156 79.109375 -87.03125 75.296875 -89.3125 C 71.492188 -91.59375 67.066406 -92.734375 62.015625 -92.734375 C 56.628906 -92.734375 51.894531 -91.4375 47.8125 -88.84375 C 43.738281 -86.25 40.570312 -82.851562 38.3125 -78.65625 C 36.0625 -74.457031 34.914062 -69.859375 34.875 -64.859375 L 34.875 -49.359375 C 34.875 -42.847656 36.0625 -37.273438 38.4375 -32.640625 C 40.8125 -28.015625 44.132812 -24.472656 48.40625 -22.015625 C 52.675781 -19.566406 57.675781 -18.34375 63.40625 -18.34375 C 67.238281 -18.34375 70.707031 -18.890625 73.8125 -19.984375 C 76.914062 -21.078125 79.609375 -22.691406 81.890625 -24.828125 C 84.171875 -26.960938 85.894531 -29.601562 87.0625 -32.75 L 111.671875 -29.984375 C 110.109375 -23.484375 107.15625 -17.816406 102.8125 -12.984375 C 98.476562 -8.160156 92.9375 -4.425781 86.1875 -1.78125 C 79.4375 0.863281 71.71875 2.1875 63.03125 2.1875 Z M 63.03125 2.1875 "/></g></g></g></svg>