<svg width="1099" height="1327" viewBox="0 0 1099 1327" fill="none" xmlns="http://www.w3.org/2000/svg">
<path opacity="0.3" d="M39.2486 1254.77C200.566 1293.24 419.789 1341.46 425.028 1110.92C426.705 1037.15 332.54 799.331 424.638 751.717C534.11 695.12 675.971 805.076 618.91 613.464C610.962 586.774 576.16 498.435 596.534 471.534C618.23 442.886 712.377 467.957 745.798 463.343C792.465 456.9 800.344 384.566 799.301 348.835C796.9 266.59 828.638 247.087 897.906 222.726C974.833 195.671 980.77 149.641 1007.87 82.2602C1017.35 58.6991 1027.77 38.258 992.07 47.0052C978.096 50.4289 892.09 80.7294 928.584 75.7863C958.875 71.6835 990.284 38.9443 1017.29 39.7238C1032.05 40.1498 1033.45 113.107 1040.22 133.3C1045.52 149.116 1063.57 179.503 1058.38 191.674" stroke="white" stroke-width="78" stroke-linecap="round"/>
</svg>
