<svg width="20" height="20" viewBox="0 0 20 20" fill="none" xmlns="http://www.w3.org/2000/svg">
<g clip-path="url(#clip0_10792_3097)">
<path d="M9.07473 2.71993C9.41632 1.89864 10.5798 1.89864 10.9214 2.71993L12.4085 6.29546C12.5525 6.6417 12.8781 6.87827 13.2519 6.90823L17.112 7.2177C17.9987 7.28878 18.3582 8.39529 17.6827 8.97396L14.7417 11.4932C14.4569 11.7372 14.3325 12.1199 14.4195 12.4847L15.318 16.2515C15.5244 17.1167 14.5832 17.8006 13.8241 17.3369L10.5193 15.3184C10.1993 15.1229 9.79681 15.1229 9.47679 15.3184L6.17202 17.3369C5.41292 17.8006 4.47167 17.1167 4.67805 16.2515L5.57657 12.4847C5.66358 12.1199 5.53921 11.7372 5.25442 11.4932L2.31344 8.97396C1.6379 8.39529 1.99743 7.28878 2.88408 7.2177L6.74417 6.90823C7.11796 6.87827 7.44357 6.6417 7.58758 6.29546L9.07473 2.71993Z" fill="#E5E7EB"/>
<g clip-path="url(#clip1_10792_3097)">
<path d="M9.07473 2.71993C9.41632 1.89864 10.5798 1.89864 10.9214 2.71993L12.4085 6.29546C12.5525 6.6417 12.8781 6.87827 13.2519 6.90823L17.112 7.2177C17.9987 7.28878 18.3582 8.39529 17.6827 8.97396L14.7417 11.4932C14.4569 11.7372 14.3325 12.1199 14.4195 12.4847L15.318 16.2515C15.5244 17.1167 14.5832 17.8006 13.8241 17.3369L10.5193 15.3184C10.1993 15.1229 9.79681 15.1229 9.47679 15.3184L6.17202 17.3369C5.41292 17.8006 4.47167 17.1167 4.67805 16.2515L5.57657 12.4847C5.66358 12.1199 5.53921 11.7372 5.25442 11.4932L2.31344 8.97396C1.6379 8.39529 1.99743 7.28878 2.88408 7.2177L6.74417 6.90823C7.11796 6.87827 7.44357 6.6417 7.58758 6.29546L9.07473 2.71993Z" fill="#FBBF24"/>
</g>
</g>
<defs>
<clipPath id="clip0_10792_3097">
<rect width="20" height="20" fill="white" transform="translate(-0.00195312)"/>
</clipPath>
<clipPath id="clip1_10792_3097">
<rect width="20" height="20" fill="white" transform="translate(-0.00195312)"/>
</clipPath>
</defs>
</svg>
