<svg xmlns="http://www.w3.org/2000/svg" xmlns:xlink="http://www.w3.org/1999/xlink" width="250" zoomAndPan="magnify" viewBox="0 0 187.5 187.499992" height="250" preserveAspectRatio="xMidYMid meet" version="1.0"><defs><g/><clipPath id="95c34557bd"><path d="M 3.160156 74 L 94 74 L 94 153.921875 L 3.160156 153.921875 Z M 3.160156 74 " clip-rule="nonzero"/></clipPath><clipPath id="b65c743a8d"><path d="M 93 32.746094 L 184 32.746094 L 184 113 L 93 113 Z M 93 32.746094 " clip-rule="nonzero"/></clipPath></defs><g clip-path="url(#95c34557bd)"><path fill="#602fff" d="M 64 130.972656 L 64 141.972656 L 14.195312 118.832031 L 14.195312 109.910156 L 64 86.769531 L 64 97.769531 L 26.332031 114.265625 L 26.332031 114.476562 Z M 93.578125 74.550781 L 10.289062 74.550781 C 6.355469 74.550781 3.167969 77.738281 3.167969 81.671875 L 3.167969 147.074219 C 3.167969 151.003906 6.355469 154.191406 10.289062 154.191406 L 70.457031 154.191406 L 93.578125 74.550781 " fill-opacity="1" fill-rule="nonzero"/></g><g clip-path="url(#b65c743a8d)"><path fill="#fbbf24" d="M 172.824219 77.378906 L 123.023438 100.207031 L 123.023438 89.207031 L 161.515625 72.710938 L 161.515625 72.503906 L 123.023438 56.003906 L 123.023438 45.007812 L 172.824219 67.832031 Z M 116.699219 32.785156 L 93.578125 112.425781 L 176.730469 112.425781 C 180.664062 112.425781 183.851562 109.238281 183.851562 105.304688 L 183.851562 39.90625 C 183.851562 35.972656 180.664062 32.785156 176.730469 32.785156 L 116.699219 32.785156 " fill-opacity="1" fill-rule="nonzero"/></g><g fill="#602fff" fill-opacity="1"><g transform="translate(24.4483, 84.717563)"><g><path d="M 1.046875 0.03125 C 0.898438 0.03125 0.78125 -0.00390625 0.6875 -0.078125 C 0.601562 -0.160156 0.5625 -0.273438 0.5625 -0.421875 C 0.5625 -0.554688 0.601562 -0.664062 0.6875 -0.75 C 0.78125 -0.832031 0.898438 -0.875 1.046875 -0.875 C 1.191406 -0.875 1.304688 -0.832031 1.390625 -0.75 C 1.484375 -0.664062 1.53125 -0.554688 1.53125 -0.421875 C 1.53125 -0.285156 1.484375 -0.175781 1.390625 -0.09375 C 1.304688 -0.0078125 1.191406 0.03125 1.046875 0.03125 Z M 1.046875 0.03125 "/></g></g></g></svg>